<svg width="204" height="204" viewBox="0 0 204 204" fill="none" xmlns="http://www.w3.org/2000/svg">
<path d="M85.2299 64.3501C85.2299 64.0001 85.2299 63.7902 85.2299 63.5702C85.3099 61.2102 87.1199 59.2501 89.4499 58.9301C90.8799 58.7401 92.1999 58.8301 93.4999 59.6101C94.7199 60.3501 96.01 60.9802 97.52 60.9502C97.9599 60.9502 98.1799 60.8502 98.3799 60.3902C98.8899 59.2402 99.8199 58.4601 100.94 57.9201C104.61 56.1501 109.18 57.4302 111.59 61.0102C112.27 62.0202 112.65 63.2202 113.15 64.3402C113.26 64.5902 113.24 64.9302 113.67 64.8202C115.59 64.3402 117.3 64.9301 118.66 66.1801C119.83 67.2501 121.1 67.5401 122.58 67.6901C134.65 68.8701 146.41 71.3801 157.69 75.9201C161.61 77.5001 164.96 79.9502 167.56 83.3302C169.52 85.8802 170.02 88.8802 169.08 91.8402C166.47 100.1 163.14 108.07 158.31 115.32C152.58 123.92 145.05 130.52 135.92 135.31C135.59 135.48 135.27 135.66 134.94 135.83C134.42 136.1 134.07 136.47 133.88 137.06C133.51 138.19 132.7 139.02 131.8 139.75C129.62 141.53 127.12 142.71 124.51 143.68C119.79 145.43 114.88 146.36 109.89 146.89C101.57 147.78 93.3199 147.37 85.1599 145.51C81.0499 144.57 77.0499 143.31 73.3899 141.14C71.7799 140.18 70.3599 139.01 69.1099 137.59C68.5199 136.91 67.7099 136.36 66.8899 135.95C62.0899 133.56 57.6499 130.65 53.6599 127.08C45.5399 119.82 40.0699 110.86 36.8299 100.52C35.9399 97.6702 35.1199 94.7801 34.6199 91.8501C34.4899 91.0901 34.4499 90.3501 34.4799 89.6201C34.5899 87.1201 35.6299 84.8202 37.3799 82.8302C40.0099 79.8502 43.3999 77.9101 46.9799 76.3001C52.8999 73.6401 59.1099 71.9402 65.4199 70.5302C67.8499 69.9902 70.2999 69.5502 72.7299 69.0202C72.9399 68.9802 73.1899 68.7001 73.2499 68.4901C74.0999 65.4301 76.7099 63.2802 79.8899 63.0902C81.7299 62.9802 83.5199 63.1502 85.2199 64.3302L85.2299 64.3501ZM35.9899 91.6101C36.0899 92.1501 36.1499 92.5801 36.2599 92.9901C36.7399 94.7701 37.2199 96.5402 37.7499 98.3102C39.9999 105.92 43.3599 112.98 48.2999 119.24C49.0599 120.21 49.96 120.99 51.02 121.62C52.33 122.39 53.6199 123.19 54.9099 123.98C55.0999 124.1 55.27 124.24 55.46 124.37L55.3699 124.52L50.8299 121.9C50.8299 122.09 50.8999 122.2 50.9799 122.29C52.4999 124.01 54.2099 125.48 56.2199 126.61C59.4799 128.46 62.8599 130.07 66.3699 131.41C75.5799 134.93 85.19 136.49 94.96 136.91C104.18 137.31 113.35 136.7 122.4 134.66C131.45 132.62 140.02 129.41 147.99 124.64C149.14 123.95 150.12 123.1 151.03 122.13C156.38 116.39 160.41 109.8 163.43 102.6C164.97 98.9301 166.28 95.1601 167.67 91.4301C167.86 90.9201 167.94 90.3702 168.09 89.7702C167.94 89.8302 167.88 89.8301 167.87 89.8601C167.8 89.9701 167.73 90.0802 167.67 90.1902C166.74 92.1101 165.31 93.5902 163.61 94.8402C160.73 96.9602 157.58 98.5901 154.3 99.9601C146.41 103.24 138.17 105.18 129.77 106.57C119.12 108.34 108.39 108.94 97.5999 108.87C85.5799 108.79 73.6799 107.75 61.9499 105.11C56.0199 103.77 50.2199 102.03 44.8099 99.1702C41.3999 97.3702 38.2799 95.2301 36.2599 91.8001C36.2399 91.7701 36.1899 91.7502 35.9999 91.6302L35.9899 91.6101ZM146.95 88.2002C147.07 88.1502 147.29 88.0401 147.51 88.0001C148.51 87.8301 149.53 87.4601 150.5 87.5501C154.18 87.9101 156.54 90.0902 157.98 93.3802C158.13 93.7202 158.24 94.0701 158.34 94.4201C158.5 94.9601 158.74 95.1301 159.26 94.7501C160.18 94.0602 161.14 93.4401 162.04 92.7301C163.12 91.8801 164.01 90.8501 164.64 89.6101C165.23 88.4601 165.35 87.2702 165 86.0202C164.62 84.6402 163.87 83.5001 162.88 82.5001C161.15 80.7501 159.11 79.4102 156.88 78.4602C151.55 76.2002 146.08 74.3501 140.44 73.0001C134.28 71.5201 128.01 70.6902 121.74 69.8902C121.56 69.8702 121.38 69.8902 121.2 69.8902L121.08 70.0902C121.53 70.5002 121.95 70.9501 122.44 71.3001C123.11 71.7901 123.74 72.2801 124.12 73.0601C124.46 73.7601 125.93 74.1202 126.59 73.7002C127.78 72.9302 128.98 72.9801 130.15 73.6601C131.14 74.2401 132.09 74.8901 132.99 75.6001C134.17 76.5201 134.75 77.7702 134.72 79.2802C134.72 79.5702 134.72 79.8602 134.72 80.1502L134.94 80.2401C135.1 80.0501 135.26 79.8501 135.43 79.6601C137.89 77.0901 141.14 77.0101 143.73 79.4401C145.03 80.6601 145.78 82.1602 146.14 83.8802C146.43 85.3102 146.69 86.7402 146.97 88.2102L146.95 88.2002ZM147.06 125.89L146.97 125.79C146.03 126.31 145.1 126.86 144.15 127.35C133.27 132.93 121.69 136.02 109.54 137.07C99.1399 137.97 88.8099 137.51 78.5799 135.37C70.7999 133.74 63.3399 131.22 56.4499 127.17C56.3299 127.1 56.1999 127.04 56.0699 126.98C56.1899 127.23 56.3699 127.4 56.5599 127.55C59.2699 129.77 62.1699 131.69 65.2499 133.34C75.5299 138.84 86.5599 141.42 98.1699 141.75C106.92 141.99 115.51 141.15 123.91 138.6C132.11 136.11 139.59 132.28 146.15 126.7C146.46 126.44 146.76 126.16 147.07 125.89H147.06ZM54.4799 89.9301C54.0899 88.3101 54.2499 86.8402 54.6999 85.3902C54.9599 84.5302 55.45 83.8301 56.21 83.3501C56.83 82.9501 57.4599 82.5802 58.0999 82.2102C60.0299 81.0902 61.6999 79.7101 62.9499 77.8101C64.2799 75.7901 66.2199 74.5402 68.6799 74.2802C69.7299 74.1702 70.7999 74.1902 71.8599 74.1302C72.0399 74.1302 72.3299 74.0901 72.3799 73.9801C72.7699 73.2001 73.11 72.4001 73.53 71.4401C73.02 71.4801 72.7499 71.4802 72.4899 71.5302C67.3999 72.4702 62.36 73.6302 57.4 75.1302C53.15 76.4202 48.9599 77.9002 45.0999 80.1502C43.1399 81.2902 41.3299 82.6201 39.9299 84.4401C38.2099 86.6601 38.0999 89.3502 39.6299 91.7002C40.6499 93.2702 42.0699 94.4402 43.5699 95.5202C43.5899 95.5402 43.6499 95.5201 43.7599 95.5001C44.8799 92.0701 47.3799 90.2302 50.8599 89.5902C50.6999 89.7502 50.48 89.8201 50.28 89.9301C49.36 90.4101 48.41 90.8302 47.53 91.3902C46.16 92.2602 45.2499 93.5602 44.5499 95.0102C44.3399 95.4402 44.1599 95.9402 44.7199 96.2702C45.3499 96.6502 46 96.9901 46.65 97.3301C47.03 97.5301 47.23 97.3601 47.28 96.9801C47.34 96.5301 47.4099 96.0802 47.4399 95.6302C47.6499 91.9302 51.01 90.0102 53.52 90.0202C53.81 90.0202 54.1099 89.9701 54.4799 89.9402V89.9301ZM121.47 87.6402C121.34 87.8202 121.31 87.8801 121.26 87.9101C121.11 88.0001 120.96 88.0901 120.81 88.1701C119.62 88.7701 118.36 89.0001 117.04 89.0001C112.75 89.0001 109.24 90.5401 106.76 94.1701C106.04 95.2201 105.21 96.2002 104.38 97.1802C103.4 98.3502 102.29 99.4501 100.86 100C98.5999 100.88 96.7299 102.23 95.1199 104C94.6299 104.54 93.99 104.78 93.28 104.85C92.51 104.93 91.73 105.01 90.96 105.11C90.16 105.21 89.5799 105.65 89.0699 106.41C89.5499 106.46 89.9499 106.53 90.3499 106.54C92.6199 106.58 94.8999 106.55 97.1699 106.64C98.7999 106.7 100.17 106.19 101.27 105.05C102.56 103.72 104.08 102.86 105.86 102.38C107.18 102.03 108.2 101.21 108.9 100C109.29 99.3302 109.73 98.6802 110.18 98.0402C112.19 95.2502 114.59 92.9701 118.14 92.3101C118.97 92.1601 119.8 92.0101 120.64 91.9201C122.96 91.6801 125.22 91.6101 127.46 92.6001C128.92 93.2501 130.58 93.3701 132.16 92.7901C132.82 92.5501 133.37 92.5702 133.94 92.9502C134.3 93.2002 134.67 93.4401 135.13 93.7401C135.06 92.4001 134.46 91.5001 133.5 90.8701C131.87 89.8101 130.21 88.7801 128.52 87.8001C126.58 86.6701 124.45 86.2101 122.21 86.3701C120.96 86.4601 119.71 86.6801 118.46 86.7501C115.8 86.9001 113.14 87.0302 110.48 87.0902C108.77 87.1302 107.34 87.7601 106.18 88.9401C105.23 89.9101 104.35 90.9701 103.6 92.1001C102.53 93.7101 101.42 95.2801 99.9899 96.5901C99.9199 96.6601 99.8699 96.7602 99.8599 96.7902L101.71 98.6702C102.24 98.0402 102.8 97.4101 103.33 96.7501C104.34 95.4801 105.32 94.1802 106.32 92.9002C108.27 90.4202 110.78 88.8602 113.91 88.4602C115.6 88.2402 117.32 88.2302 119.02 88.0702C119.79 88.0002 120.54 87.7901 121.44 87.6201L121.47 87.6402ZM76.02 97.4102V97.5901C75.9599 97.6401 75.8999 97.7101 75.8199 97.7201C74.2699 98.0801 72.7499 98.2901 71.3899 97.1201C70.3299 96.2101 69.0899 95.7502 67.6599 96.0102C66.2399 96.2702 65.0199 96.9601 63.8199 97.7101C61.9599 98.8801 59.9199 99.5801 57.7599 99.9401C55.0099 100.39 53.0099 99.0002 52.4099 96.2702C51.9999 94.4102 53.09 92.5401 54.9 91.9901C55.03 91.9501 55.16 91.8802 55.28 91.8202C54.81 90.8602 54.5799 90.7502 53.6399 91.0202C52.2099 91.4302 51.3899 92.4801 50.7399 93.7301C50.6399 93.9201 50.55 94.1201 50.46 94.3101C50.46 92.8401 51.39 91.9502 52.52 91.1302C50.75 91.2002 48.8899 92.8502 48.5499 94.6302C48.3599 95.6302 48.26 96.6402 48.15 97.6502C48.13 97.8002 48.2599 98.0501 48.3899 98.1201C48.9899 98.4401 49.6199 98.7002 50.2999 99.0202L50.0799 97.0801C50.2499 97.1001 50.2799 97.1302 50.2999 97.1702C50.3399 97.2902 50.3899 97.4202 50.4099 97.5402C50.6499 98.8502 51.3899 99.6701 52.6999 99.9601C52.7999 99.9801 52.8999 100.03 53.0099 100.07C56.8499 101.43 60.7799 102.47 64.7599 103.36C65.6599 103.56 66.3299 103.47 67.0999 102.93C69.3899 101.32 71.86 100.19 74.78 100.45C75.44 100.51 76.1199 100.47 76.7899 100.42C79.6999 100.22 82.4699 99.4602 85.0599 98.1402C87.3799 96.9502 88.5399 94.9602 88.5099 92.3302C88.4999 91.1002 88.4499 89.8602 88.3899 88.6302C88.2599 85.8902 87.7699 83.2502 86.1399 80.9502C85.7699 80.4302 85.3399 79.9502 84.8699 79.3802C84.2799 80.9302 83.8799 82.2802 84.7499 83.7702C85.7399 85.4702 86.0999 87.3702 85.9399 89.3402C85.7099 92.3002 83.55 94.9801 80.84 95.6701C78.06 96.3801 74.8 95.0201 73.21 92.4801C73.07 92.2601 72.9399 92.0402 72.7999 91.8202C71.7999 90.2902 70.7799 89.9301 69.02 90.4801C65.87 91.4701 63.9999 93.7402 62.7899 96.6702C62.7299 96.8102 62.7099 96.9701 62.6599 97.1201C63.7499 96.5801 64.76 95.9901 65.84 95.5501C67.86 94.7201 69.7899 94.9501 71.5099 96.3501C72.3599 97.0401 73.2999 97.3601 74.3899 97.3201C74.9199 97.3001 75.4499 97.3702 75.9899 97.3902L76.02 97.4102ZM104.87 76.3802L104.98 76.4701C104.68 76.7701 104.42 77.1101 104.08 77.3701C101.76 79.1701 99.2099 80.5301 96.3799 81.3001C93.5499 82.0701 90.8799 81.7401 88.4899 79.9401C87.6299 79.2901 86.7899 78.6001 85.9499 77.9201C85.7199 77.7301 85.5099 77.5301 85.2599 77.3101C84.9099 77.9101 85.0599 78.3501 85.4399 78.7901C86.1299 79.6001 86.7699 80.4401 87.4699 81.2401C87.8499 81.6701 88.2499 82.1301 88.7399 82.4101C90.8499 83.6001 93.16 83.9802 95.53 83.5802C103.49 82.2202 108.91 77.6701 111.86 70.2201C112.92 67.5601 112.77 64.8101 111.39 62.2301C109.24 58.2201 104.17 56.8101 100.46 59.1901C99.86 59.5801 99.3799 60.1702 98.8799 60.7002C98.7699 60.8102 98.7 61.1402 98.77 61.2102C99.34 61.7802 99.9499 62.3101 100.62 62.9201C100.88 61.8001 101.52 61.1301 102.4 60.6601C105.61 58.9601 109.58 60.9602 110.04 64.5702C110.38 67.2802 109.3 69.5201 107.46 71.4401C105.79 73.1801 103.78 74.4402 101.71 75.6402C101.07 76.0102 100.44 76.4001 99.8699 76.8501C99.0299 77.5101 98.7599 78.4902 98.5099 79.4602L98.6599 79.6502C100.73 78.5602 102.8 77.4702 104.88 76.3802H104.87ZM85.9099 68.8601C85.9099 69.0801 85.9099 69.1202 85.9099 69.1302C85.8599 69.1702 85.8199 69.2301 85.7599 69.2501C83.7399 69.8801 82.7999 71.4101 82.4399 73.3601C82.2499 74.4201 82.2099 75.5102 82.0599 76.5802C81.8199 78.3102 81.62 80.0602 81.28 81.7702C80.97 83.3302 79.9499 84.3801 78.4299 84.8701C77.1299 85.2901 75.8099 85.6302 74.4999 86.0102C74.3099 86.0702 74.1199 86.1301 73.77 86.2501C74.51 86.6001 75.0799 86.9102 75.6799 87.1502C76.2199 87.3702 76.7599 87.6402 77.3299 87.7102C79.6199 88.0002 81.6299 86.7502 82.4199 84.4602C82.9599 82.9102 83.3599 81.3102 83.7399 79.7102C84.2299 77.6502 84.53 75.5401 85.09 73.4901C85.89 70.5901 87.5099 68.3402 90.5499 67.3802C91.2499 67.1602 91.9199 66.8501 92.6099 66.6001C95.1999 65.6601 97.3599 66.3901 98.8299 68.7201C99.2999 69.4701 99.6699 70.2901 100.12 71.0501C100.61 71.8601 101.14 72.6601 101.68 73.4401C102.04 73.9601 102.54 74.0802 103.09 73.7102C103.91 73.1502 104.72 72.5801 105.53 72.0001C105.62 71.9401 105.65 71.8101 105.73 71.6701C104.4 71.4001 103.43 70.6701 102.63 69.6901C102.36 69.3501 102.09 69.0201 101.8 68.6901C100.53 67.2101 99.2099 65.7901 97.4799 64.8101C96.1099 64.0301 94.72 64.0202 93.28 64.4602C92.58 64.6802 91.8999 64.9802 91.2299 65.2802C89.1999 66.1902 87.1 66.8201 84.9 67.1801C84.14 67.3001 83.39 67.5601 82.65 67.8001C81.97 68.0201 81.4799 68.4802 81.1399 69.1402C80.2099 70.9502 79.2399 72.7401 78.2999 74.5401C78.1199 74.8801 77.9699 75.2501 77.8699 75.6201C77.3699 77.4601 78.64 79.2801 80.71 79.5401C80.71 78.9401 80.68 78.3602 80.71 77.7802C80.79 76.4902 80.82 75.1802 81.02 73.9002C81.31 72.0502 82.29 70.5901 83.9 69.6201C84.48 69.2801 85.1699 69.1201 85.8699 68.8601H85.9099ZM82.2499 87.2301L82.0399 87.1502C81.8899 87.2702 81.73 87.3701 81.59 87.5001C80.7 88.3401 79.6299 88.7101 78.4199 88.8101C77.2599 88.9001 76.2199 88.5702 75.2499 88.0302C73.0699 86.8202 70.6899 86.4201 68.27 86.1801C67.16 86.0701 66.1099 86.3102 65.3499 87.1402C64.5099 88.0602 63.64 89.0102 63.03 90.0802C62.11 91.7002 60.9799 93.0802 59.4799 94.1502C58.0099 95.2002 57.4 96.6302 57.4 98.3902C57.4 98.9302 57.6 99.1201 58.09 98.9901C59.03 98.7501 59.9699 98.4701 60.9099 98.2201C61.3599 98.1001 61.5299 97.8001 61.6899 97.3701C62.1299 96.1801 62.52 94.9401 63.15 93.8501C64.49 91.5401 66.4999 90.0202 69.1199 89.3902C71.1499 88.9002 72.4099 89.4101 73.5999 91.1201C73.9799 91.6701 74.31 92.2601 74.71 92.8001C76.09 94.7001 79.3199 95.2401 81.0999 94.4901C83.0299 93.6801 84.2699 92.1001 84.6699 89.9901C84.9999 88.2401 84.6299 86.5402 84.0999 84.8802C84.0099 84.5902 83.8999 84.3101 83.7399 83.8601C83.5599 84.2801 83.4899 84.5401 83.3499 84.7501C82.5999 85.9201 82.42 87.1201 82.84 88.4901C83.16 89.5601 82.6299 90.4601 81.6599 90.9901C81.4599 91.1001 81.2099 91.1201 80.8599 91.2201C81.3299 90.4801 81.8299 89.9401 82.0399 89.2901C82.2599 88.6401 82.1899 87.9002 82.2399 87.2002L82.2499 87.2301ZM132.02 137.46L131.94 137.32C112.01 145.3 91.9699 145.32 71.8099 138.21C72.2699 138.61 72.7399 139.01 73.2599 139.33C76.1499 141.13 79.2599 142.43 82.5399 143.32C92.6399 146.07 102.88 146.45 113.2 144.97C117.82 144.31 122.36 143.25 126.6 141.22C128.11 140.5 129.49 139.51 130.9 138.58C131.33 138.3 131.65 137.83 132.02 137.45V137.46ZM116.19 95.6502C118.76 95.0202 121.27 95.0302 123.77 95.3202C127.6 95.7702 131 97.5001 134.49 98.9601C135.92 99.5601 136.87 100.73 137.22 102.32C137.25 102.46 137.59 102.67 137.76 102.64C138.52 102.5 139.28 102.3 140.03 102.09C140.47 101.97 140.51 101.68 140.38 101.28C140.14 100.54 139.6 100.11 138.96 99.7602C137.92 99.1902 136.87 98.6201 135.86 98.0001C135.48 97.7601 135.18 97.3902 134.8 97.0302L135.34 96.7902L133.04 95.0702L133.16 94.9002C133.96 95.4302 134.96 95.8002 135.53 96.5102C136.25 97.4102 137.13 97.9402 138.1 98.3902C139.61 99.0902 141.17 99.7302 141.38 101.76C141.67 101.69 141.88 101.65 142.08 101.59C143.69 101.09 145.3 100.57 146.92 100.09C147.57 99.9001 147.97 99.5001 148.34 98.9501C148.75 98.3501 149.26 97.8101 149.81 97.3301C150.35 96.8601 150.96 96.8702 151.61 97.2702C152.71 97.9502 153.85 97.8002 154.88 96.9002C153.42 95.6502 152.03 95.2002 150.1 95.3302C148.84 95.4102 147.84 96.0102 146.97 96.8802C146.14 97.7102 145.16 98.4701 145.47 99.8701C145.38 99.8701 145.36 99.8701 145.34 99.8701C145.25 99.8001 145.16 99.7402 145.09 99.6702C144.23 98.8202 143.31 98.0301 142.08 97.8501C140.41 97.6001 138.93 96.9401 137.5 96.1101C136.16 95.3301 134.84 94.5001 133.49 93.7201C133.33 93.6301 133.07 93.6301 132.89 93.6902C130.73 94.3902 128.62 94.2202 126.55 93.3302C125.56 92.9002 124.53 92.7002 123.45 92.7702C122.33 92.8502 121.2 93.0001 120.08 93.0001C118.2 93.0001 117.17 94.1902 116.21 95.6502H116.19ZM120.94 75.4801C121.07 75.7201 121.22 75.9502 121.32 76.2002C122.18 78.3702 121.44 80.7501 119.35 81.9301C116.17 83.7201 112.84 84.1702 109.39 82.6502C109.19 82.5602 108.88 82.4601 108.73 82.5501C107.82 83.1101 106.95 83.7302 106.04 84.3402C108.32 85.3002 113.23 86.4501 117 85.4101C118.38 85.0301 119.79 84.7301 120.9 83.7401C123.13 81.7601 123.66 79.2501 122.93 76.4701C122 72.9401 118.44 69.8801 113.31 70.1201C113.15 70.1201 112.93 70.3102 112.85 70.4602C112.38 71.3902 111.95 72.3302 111.51 73.2702C111.43 73.4502 111.36 73.6402 111.24 73.9502C113.66 73.4402 115.73 73.7002 117.53 75.3902C119.42 77.1602 119.53 79.1801 118.68 81.4401C120.49 80.7101 121.13 78.9601 120.96 75.4701L120.94 75.4801ZM131.64 99.8201L131.46 100.02C130.99 99.7302 130.52 99.4202 130.04 99.1502C128.68 98.4002 127.37 97.5201 125.93 96.9501C124.04 96.1901 122.15 96.2002 120.46 97.6802C119.19 98.7902 118.06 100 117.27 101.49C116.9 102.19 116.62 102.95 116.38 103.71C116.31 103.94 116.42 104.39 116.59 104.49C117.35 104.93 118.15 105.31 118.97 105.63C119.42 105.81 119.79 105.61 119.97 105.09C120.68 103.15 122.01 101.68 123.67 100.51C125.62 99.1402 126.75 99.4402 128.09 100.38C129.08 101.07 130.18 101.39 131.37 101.48C132.1 101.54 132.84 101.65 133.53 101.88C133.95 102.02 134.35 102.36 134.63 102.71C135.01 103.17 135.43 103.33 136 103C136.49 102.71 136.15 102.31 136.01 102.04C135.76 101.55 135.46 101.03 135.06 100.67C133.72 99.4802 132.01 99.0401 130.37 98.4401L130.24 98.6001L131.62 99.8002L131.64 99.8201ZM113.21 69.4901C113.49 69.4701 113.79 69.4401 114.08 69.4301C114.64 69.3901 115.21 69.2802 115.76 69.3402C120.49 69.8202 124.28 74.0701 124.23 78.8101C124.23 79.3301 124.22 79.8501 124.16 80.3701C124.11 80.8401 124.24 81.1001 124.73 81.1801C125.62 81.3201 126.28 81.8001 126.69 82.6101C127.04 83.3001 127.61 83.6001 128.39 83.5601C128.65 83.5501 128.91 83.6502 129.17 83.7002L129.15 83.9701L127.67 84.1201C127.8 84.7801 127.85 85.4101 128.06 85.9901C128.18 86.3301 128.5 86.6702 128.82 86.8302C128.95 86.9002 129.41 86.5402 129.56 86.2802C130.29 85.0702 130.45 83.7302 130.4 82.3402C130.37 81.6602 130.09 81.2901 129.37 81.1801C128.23 81.0101 127.36 80.4702 127.1 79.2102C126.94 78.4002 126.38 77.8502 125.61 77.5202C125.34 77.4002 125.09 77.2302 124.83 77.0802C126.12 77.1902 127.23 77.5702 127.8 78.8302C127.9 79.0502 128.03 79.2502 128.15 79.4502C128.6 80.2102 129.36 80.4001 130.19 80.6101C129.75 78.4001 128.78 76.6501 126.82 75.6001C126.02 75.1701 125.15 74.8901 124.33 74.4901C123.95 74.3101 123.57 74.0702 123.28 73.7802C122.57 73.0602 121.87 72.3201 121.23 71.5401C120.81 71.0301 120.36 70.4902 120.17 69.8802C119.54 67.8902 118.13 66.6701 116.3 65.9701C115.43 65.6301 114.41 65.6902 113.46 65.5702L113.22 69.5001L113.21 69.4901ZM61.8199 90.0902C62.4399 89.2102 62.8799 88.3401 62.8799 87.2501C62.8799 85.5701 63.25 83.9402 63.96 82.4002C64.86 80.4502 66.0099 78.6401 68.0999 77.8601C71.3499 76.6501 74.3999 77.2501 77.1699 79.3001C77.8299 79.7901 78.1399 80.4802 78.1799 81.3202C78.1999 81.8102 78.2999 82.3102 78.4499 82.7802C78.6599 83.4502 78.9299 83.5001 79.3599 82.9101C79.7099 82.4501 79.9699 81.9201 80.2499 81.4101C80.4699 81.0201 80.3699 80.7101 79.9699 80.4901C79.3699 80.1501 78.7599 79.8102 78.1699 79.4502C77.3699 78.9702 76.8 78.2802 76.71 77.3402C76.63 76.5102 76.1499 76.1302 75.4499 75.8902C73.3999 75.1802 71.2799 74.8701 69.1199 75.1101C67.3299 75.3001 65.7599 76.0701 64.6299 77.4801C62.6099 80.0101 61.1399 82.8502 60.2199 85.9502C59.6899 87.7402 60.1799 88.9102 61.7999 90.0802L61.8199 90.0902ZM108.42 86.4301C107.46 85.9401 106.58 85.4502 105.67 85.0302C105.37 84.9002 104.96 84.8301 104.66 84.9201C102.14 85.7101 99.6399 86.5402 97.1399 87.3802C96.8399 87.4802 96.5299 87.6401 96.3199 87.8701C95.3999 88.8801 94.7299 90.0401 94.5599 91.4201C94.2999 93.5101 94.4499 95.5702 95.2999 97.5302C95.8099 98.6902 96.36 99.8302 96.9 101L100.56 99.2301C100.23 98.8601 100 98.6101 99.78 98.3601C98.93 97.3901 98.0799 96.3701 97.9499 95.0601C97.6399 91.8301 98.9699 89.3302 101.67 87.5902C103.02 86.7202 104.47 86.4901 105.99 87.2401C106.19 87.3401 106.5 87.3401 106.71 87.2501C107.27 87.0201 107.8 86.7301 108.41 86.4201L108.42 86.4301ZM88.7599 83.3501C88.9099 85.3601 89.4999 86.1201 91.3199 86.6701C91.7499 86.8001 92.2199 86.9102 92.6599 86.8802C94.0799 86.7802 95.5499 86.8001 96.8899 86.4201C99.4599 85.6801 101.99 84.7501 104.49 83.7901C105.59 83.3701 106.62 82.7302 107.61 82.0702C109.31 80.9302 110.67 79.4702 111.52 77.5702C111.92 76.6702 112.08 75.7302 112.03 74.7602C110.86 74.4302 110.89 74.4501 110.24 75.3501C109.49 76.4001 108.76 77.4901 107.89 78.4401C104.93 81.6801 101.09 83.3401 96.8899 84.3001C94.1599 84.9201 91.5199 84.7601 89.0099 83.4101C88.9599 83.3801 88.8899 83.3801 88.77 83.3601L88.7599 83.3501ZM107.72 69.3302C106.48 68.8002 105.91 67.6102 105.1 66.6402C104.35 65.7402 103.48 64.9702 102.35 64.6402C100.85 64.1902 99.6199 63.3802 98.4899 62.3202C98.2199 62.0702 97.78 61.9001 97.4 61.8701C96.04 61.7601 94.7599 61.4301 93.5499 60.8001C92.9899 60.5101 92.43 60.2102 91.84 60.0102C91.32 59.8402 90.7299 59.7002 90.1999 59.7602C87.7499 60.0102 86.0199 61.9802 86.0599 64.4502C86.0599 64.7102 86.1899 64.9902 86.3499 65.2102C86.7299 65.7402 87.2199 65.9201 87.8799 65.6801C90.2099 64.7901 92.5499 63.9301 94.8799 63.0601C94.3199 62.8201 93.7 62.4502 93.02 62.2802C92.13 62.0602 91.1899 61.8502 90.2899 61.9002C88.9399 61.9702 88.85 62.1802 88.65 63.5202C88.59 63.9002 88.5499 64.3001 88.4399 64.6701C88.3699 64.9201 88.1999 65.1301 88.0699 65.3601C87.9399 65.2301 87.9099 65.1502 87.9199 65.0802C88.0299 64.3702 88.1199 63.6602 88.2599 62.9602C88.5199 61.6502 88.95 61.2501 90.28 61.2201C92.14 61.1701 93.8799 61.5902 95.3899 62.7702C95.7399 63.0402 96.17 63.2602 96.59 63.3802C97.86 63.7602 98.9999 64.3801 99.9499 65.2901C101.02 66.3001 102 67.4002 103.02 68.4602C103.61 69.0602 104.15 69.7201 104.81 70.2401C106 71.1801 107.05 70.8402 107.71 69.3402L107.72 69.3302ZM134.6 81.3101C134.43 82.6801 134.31 83.9701 134.1 85.2501C134.01 85.7701 134.07 86.1601 134.41 86.5501C135.21 87.4601 135.7 88.5402 135.56 89.7602C135.45 90.6902 135.8 91.5302 135.85 92.3902C135.95 93.9502 136.69 94.7602 137.97 95.3802C138.37 95.5702 138.57 95.5602 138.87 95.3202C139.73 94.6102 140.25 93.7202 140.27 92.5802C140.3 90.7602 140.26 88.9402 140.36 87.1302C140.42 85.9702 140.03 85.0101 139.43 84.1001C138.28 82.3601 136.65 81.4402 134.59 81.3202L134.6 81.3101ZM90.1999 104.02C89.5999 103.53 88.8599 103.36 88.1199 103.27C86.1899 103.04 84.76 102.01 83.52 100.61C83.3699 100.45 83.0099 100.31 82.8199 100.37C79.8699 101.32 76.84 101.49 73.78 101.49C71.59 101.49 69.79 102.63 67.96 103.67C67.94 103.68 67.9399 103.75 67.9099 103.89C69.2199 104.1 70.4099 104.66 71.8499 104.03C74.8999 102.69 78.0599 102.58 81.1799 103.9C82.8899 104.63 84.5699 105.43 86.3099 106.09C86.8599 106.3 87.72 106.4 88.15 106.11C88.93 105.6 89.4999 104.76 90.1999 104.01V104.02ZM93.7999 103.33C93.0999 103.15 92.3099 102.92 91.8199 102.21C91.1599 101.25 90.25 100.76 89.15 100.52C88.23 100.32 87.4499 99.9001 86.8799 99.1201C86.7699 98.9701 86.4399 98.8402 86.2899 98.9002C85.4999 99.2302 84.7399 99.6202 83.8499 100.05C84.2199 100.4 84.4599 100.69 84.7599 100.88C85.9499 101.62 87.12 102.38 88.59 102.52C89.48 102.61 90.2999 102.92 90.9799 103.58C91.2199 103.81 91.6299 103.91 91.9799 103.95C93.5099 104.14 94.5499 103.31 95.4899 102.23C95.8599 101.8 95.9099 101.43 95.4399 101.09C94.2699 100.25 93.0899 99.4101 91.8899 98.6001C91.2299 98.1601 90.4799 97.8301 89.8299 97.3601C89.4299 97.0701 89.1399 96.6301 88.7999 96.2401C88.3499 96.8301 87.9699 97.4202 87.5099 97.9202C87.0799 98.3802 87.1599 98.7602 87.6199 99.0402C88.1299 99.3502 88.6999 99.5601 89.2499 99.8201C90.0299 100.19 90.8999 100.43 91.5499 100.95C92.3999 101.64 93.0799 102.54 93.7999 103.33ZM74.9699 74.8501C75.0399 74.4101 75.12 74.0502 75.15 73.7002C75.33 71.8702 76.1399 70.3601 77.4499 69.1001C78.3299 68.2501 79.3699 67.7201 80.6299 67.6701C80.9899 67.6601 81.3499 67.5202 81.6799 67.3802C82.0699 67.2202 82.1799 66.9102 81.8099 66.6402C81.3299 66.2902 80.8 65.9902 80.28 65.7002C80.09 65.6002 79.86 65.5702 79.65 65.5102C80.65 65.3202 81.6099 65.2301 82.2899 66.1601C82.4399 66.3601 82.6899 66.6401 82.8699 66.6201C83.8799 66.4901 84.8799 66.2801 85.8799 66.1001L85.9099 65.8302C85.2099 65.4202 84.5499 64.9301 83.8099 64.6101C81.9699 63.8201 80.0099 63.6501 78.1899 64.4301C75.6299 65.5201 74.0399 67.4201 74.2199 70.4301C74.2999 71.6501 74.2399 72.8602 73.5999 73.9602C73.5399 74.0602 73.5499 74.2002 73.52 74.3802L74.9399 74.8601L74.9699 74.8501ZM97.7499 69.0902L97.8699 68.8501C97.2499 68.3701 96.6499 67.8501 95.9899 67.4401C95.3399 67.0301 94.5799 66.9701 93.8599 67.2201C92.3899 67.7301 90.8999 68.2002 89.4799 68.8402C87.8699 69.5602 87.0399 71.0402 86.3499 72.5802C86.2899 72.7102 86.3999 73.0601 86.5099 73.1101C87.0999 73.3501 87.7199 73.5301 88.3199 73.7201C90.3899 70.3801 92.1599 68.7102 93.8199 68.5802C93.6899 68.6902 93.5999 68.7801 93.4899 68.8501C91.6699 70.0801 90.25 71.7002 89.03 73.5102C88.93 73.6602 88.8499 73.9801 88.9199 74.0601C89.4899 74.6101 90.0999 75.1101 90.7599 75.6801C91.0299 75.2401 91.2199 74.9102 91.4199 74.5802C92.0799 73.4602 92.6799 72.3101 93.4099 71.2401C94.2699 69.9801 95.5099 69.2701 97.0599 69.1801C97.2899 69.1701 97.5199 69.1301 97.7499 69.1101V69.0902ZM61.1399 81.2501C59.7099 82.1701 58.3099 83.0901 56.8799 83.9801C55.9899 84.5301 55.4599 85.3302 55.3199 86.3402C54.8099 89.8702 55.7099 91.8401 58.8799 93.0601C59.0899 93.1401 59.48 93.0602 59.65 92.9002C60.19 92.4002 60.68 91.8501 61.15 91.2901C61.8 90.5101 61.7799 90.4902 60.9499 89.9602C59.5599 89.0702 59.0199 87.7801 59.3599 86.1801C59.5299 85.4001 59.7399 84.6402 59.9399 83.8302C57.8899 84.7202 56.9599 86.7502 57.6599 88.7602C58.0499 89.8702 58.6599 90.8502 59.4899 91.7002C58.0199 90.7702 57.0999 89.4702 56.9699 87.7002C56.8399 85.8902 57.7999 84.6202 59.2599 83.7702C60.2899 83.1702 60.7999 82.3101 61.1399 81.2501ZM131.46 88.4602C132.55 87.1002 133.44 85.7401 133.54 84.0501C133.63 82.3701 133.65 80.6801 133.63 79.0001C133.63 78.5001 133.54 77.9102 133.26 77.5202C132.17 76.0002 130.73 74.8601 128.99 74.1601C128.36 73.9101 127.74 74.0601 127.04 74.5401C129.47 75.8501 130.73 77.8202 131.12 80.4002C131.5 82.8902 131.74 85.3201 129.84 87.4401L131.46 88.4602ZM67.0399 79.6901C65.0099 81.6201 64.2899 84.2002 63.9099 87.0702C64.1799 86.8702 64.35 86.7501 64.52 86.6201C65.58 85.8101 66.7199 85.2901 68.0999 85.3001C69.4099 85.3001 69.4499 85.2301 69.7599 83.9401C69.8599 83.5401 69.8899 83.1301 69.9499 82.7201C70.0299 82.1201 70.0799 81.5201 70.1899 80.9201C70.3699 79.8901 70.7799 79.6201 71.7999 79.7501C71.9899 79.7801 72.2899 79.7701 72.3899 79.6601C72.6999 79.3101 72.2499 78.2602 71.7899 78.2802C70.7999 78.3402 69.81 78.4502 68.84 78.6302C68.59 78.6702 68.3199 79.0202 68.2299 79.2802C68.1899 79.4002 68.5199 79.7101 68.7399 79.8501C69.1899 80.1501 69.5899 80.4602 69.7299 80.8802L67.0699 79.7002L67.0399 79.6901ZM146.63 91.6701C147.35 91.2201 147.96 90.6901 148.67 90.4201C150.42 89.7501 152.49 90.3901 153.69 92.0401C154.38 92.9901 154.92 94.0802 155.32 95.1902C155.85 96.6702 155.81 96.7202 157.2 95.8902C157.24 95.8702 157.27 95.8402 157.31 95.8202C157.72 95.6102 157.84 95.2901 157.72 94.8501C156.9 91.7701 155.09 89.5701 152.02 88.5401C149.75 87.7801 147.26 88.5401 145.47 90.6201L146.63 91.6701ZM116.85 105.79C114.54 104.67 113.72 102.62 113.49 100.3C113.26 97.9102 114.48 96.0202 115.88 94.2102C115.67 94.2402 115.49 94.2802 115.37 94.3802C114.06 95.5102 112.76 96.6402 111.47 97.8002C111.33 97.9302 111.31 98.2301 111.31 98.4601C111.33 99.7201 111.4 100.97 111.41 102.22C111.41 103.44 111.8 104.5 112.56 105.45C113.16 106.2 113.59 106.35 114.61 106.06C113.86 105.33 113.06 104.67 112.68 103.53C113.32 104.24 113.85 104.87 114.42 105.45C115.05 106.11 115.9 106.22 116.84 105.79H116.85ZM144.72 82.2301C144.48 82.4301 144.29 82.6101 144.08 82.7501C143.7 83.0101 143.61 83.2402 143.85 83.7002C144.12 84.2002 144.23 84.8001 144.36 85.3601C144.43 85.6501 144.37 85.9702 144.37 86.2802C144.09 85.5502 143.89 84.8402 143.67 84.1502C143.5 83.6202 143.19 83.4601 142.72 83.8701C142.36 84.1801 141.93 84.4202 141.62 84.7702C141.4 85.0102 141.24 85.3901 141.23 85.7201C141.21 86.8201 141.28 87.9202 141.31 89.0302C141.31 89.2802 141.31 89.5302 141.31 89.7702C142.18 89.8402 142.96 89.8601 143.72 89.9901C144.66 90.1401 145.52 89.7901 145.61 88.8701C145.77 87.3501 146.36 85.6702 144.76 84.4602C144.73 84.4402 144.74 84.3802 144.73 84.3402C145.19 83.7068 145.19 83.0035 144.73 82.2301H144.72ZM96.3199 70.6801L96.53 70.5601C97.08 71.5301 97.6099 72.5201 98.1999 73.4701C98.5099 73.9801 98.8799 74.4802 99.3199 74.8802C100.07 75.5702 100.65 75.4802 101.23 74.8202C100.36 73.3402 99.5199 71.9101 98.6799 70.4801C98.5999 70.3501 98.5099 70.2202 98.4499 70.0902C98.2599 69.6202 97.93 69.5002 97.46 69.6502C97.32 69.7002 97.16 69.7201 97.02 69.7501C95.7799 70.0601 95.7399 70.0901 96.2499 71.2401C96.8499 72.5801 96.9499 73.9401 96.6199 75.3601C96.4399 76.1601 96.2699 76.9702 96.1599 77.7802C96.0799 78.3502 96.0399 78.9502 96.0999 79.5202C96.1199 79.7302 96.4399 80.0302 96.6599 80.0702C97.0399 80.1402 97.5999 80.1801 97.6899 79.6601C97.9099 78.3701 98.4899 77.2502 99.1399 76.1402C99.2099 76.0202 99.1599 75.6901 99.0499 75.6101C97.3699 74.3601 97.0599 72.4002 96.3199 70.6502V70.6801ZM112.34 82.6801L112.36 82.8501C113.22 82.7901 114.08 82.6801 114.94 82.6801C117.22 82.6801 118.52 79.4301 117.63 77.7501C117.05 76.6501 116.26 75.7401 115.15 75.1701C114.37 74.7601 113.52 74.5701 112.54 74.6701C112.7 75.2101 112.9 75.6901 113.18 76.1201C113.36 76.4001 113.68 76.6001 113.9 76.8601C115.57 78.8201 115.08 81.3002 112.8 82.4502C112.65 82.5302 112.5 82.6101 112.35 82.6901L112.34 82.6801ZM89.4899 86.7702C89.4899 86.7702 89.4699 86.9101 89.4699 87.0401C89.5199 88.9201 89.5799 90.8001 89.6099 92.6801C89.6099 93.2601 89.8699 93.6101 90.4099 93.6902C91.2399 93.8102 92.0799 93.8701 92.9199 93.9101C93.0399 93.9101 93.2599 93.6702 93.2899 93.5202C93.5199 92.2202 93.7299 90.9201 93.9199 89.6201C94.0299 88.8601 93.5499 88.0302 92.9199 87.8402C91.7999 87.4902 90.6699 87.1502 89.4899 86.7802V86.7702ZM95.3499 70.4101C94.2099 71.2201 93.1999 71.8902 93.5699 73.5102C93.8499 74.7602 93.59 76.0401 92.71 77.0501C92.13 77.7201 92.0199 78.4001 92.1599 79.2501C92.3899 80.6701 92.3499 80.6801 93.8099 80.6101C94.6766 80.5701 95.0933 80.1368 95.0599 79.3101C95.0599 79.0701 95.0299 78.8301 95.0599 78.6001C95.2499 77.2701 95.4199 75.9502 95.6699 74.6302C95.9299 73.2202 95.8999 71.8501 95.3499 70.4101ZM140.7 94.9101L144.77 95.9602C144.77 94.1802 144.26 92.7602 142.13 92.5102C144.05 92.2102 145.22 93.1902 145.28 95.0102C145.3 95.5702 145.28 96.1401 145.28 96.7001L145.5 96.7401C145.97 96.3401 146.41 95.8801 146.92 95.5501C147.42 95.2301 147.41 94.8901 147.24 94.4101C146.4 92.1001 144.87 90.9201 141.98 90.5401C141.45 90.4701 141.3 90.7202 141.31 91.2102C141.34 92.5102 141.45 93.8201 140.7 94.9101ZM99.3799 95.9201C101.43 93.1901 103.43 90.5401 105.43 87.8701C103.74 87.2901 101.58 88.2301 100.18 90.1801C99.1499 91.6101 98.1199 94.3801 99.3699 95.9201H99.3799ZM58.2299 93.8302C57.4299 93.4302 56.7099 93.0401 55.9499 92.7201C55.7299 92.6301 55.38 92.6802 55.15 92.7802C53.81 93.3702 53.1099 94.8902 53.5399 96.2802C53.8999 97.4402 54.58 98.3702 55.71 98.9002C55.97 99.0202 56.2699 99.0401 56.5499 99.1101C56.5799 98.8401 56.6599 98.5602 56.6299 98.3002C56.4599 96.7602 56.7799 95.3701 57.9199 94.2501C58.0099 94.1601 58.0699 94.0502 58.2299 93.8302ZM154.57 95.5501C154.5 94.4801 153.76 93.1101 152.81 92.1601C151.23 90.5901 149.17 90.5202 147.53 92.0202C147.42 92.1202 147.35 92.3701 147.4 92.5001C147.69 93.2201 148.02 93.9201 148.38 94.7201C150.55 93.8601 152.64 93.9401 154.58 95.5501H154.57ZM73.1599 78.3001C73.7399 80.2501 73.41 82.0801 73.3299 83.9101H73.0699V80.8202C72.5799 80.7302 72.1899 80.7202 71.8499 80.5802C71.1499 80.2902 71.11 80.3201 71.03 81.1201C70.91 82.2501 70.7399 83.3801 70.5599 84.5001C70.5099 84.8101 70.3499 85.1002 70.1999 85.5302C70.9199 85.5902 71.5899 85.7901 72.1799 85.6601C72.9299 85.4901 73.61 85.0501 74.4 84.6901C74.04 82.9601 74.0199 81.1802 75.0599 79.5202C75.2499 79.2102 75.1 78.9902 74.77 78.8802C74.26 78.7002 73.7599 78.5101 73.1699 78.2901L73.1599 78.3001ZM91.3499 80.3001C91.3899 80.1801 91.4299 80.1202 91.4299 80.0702C91.4299 79.9402 91.4299 79.8101 91.3899 79.6801C90.7899 76.8301 88.89 75.1302 86.34 74.0202C85.92 73.8402 85.7399 74.0001 85.6699 74.4101C85.5999 74.8201 85.5399 75.2201 85.4399 75.6201C85.2999 76.2001 85.4599 76.6401 85.9499 76.9701C87.5099 77.9801 89.0699 78.9901 90.6299 79.9901C90.8399 80.1201 91.09 80.2001 91.34 80.3001H91.3499ZM109.07 64.9602C109 63.0302 107.01 61.1301 105.07 61.0601C103.89 61.0201 102.85 61.3902 101.99 62.2002C101.52 62.6502 101.43 63.3101 101.83 63.4901C102.84 63.9501 103.82 64.5401 105.03 64.2301C106.13 63.9501 107.22 64.0702 108.24 64.5902C108.49 64.7102 108.74 64.8202 109.06 64.9602H109.07ZM120.38 96.2902L120.3 96.0602C119.35 96.2202 118.38 96.3001 117.47 96.5701C114.98 97.2801 114.88 97.2102 114.64 100.3C114.57 101.23 114.97 102.08 115.36 102.93C116.38 100.19 118.15 98.0702 120.38 96.2902ZM80.6399 68.5501C77.8399 69.0301 75.45 72.1702 75.84 74.7602C75.9 75.1602 76.29 75.5202 76.53 75.9002L80.6399 68.5501ZM109.35 82.1302C110.84 82.7202 112.81 81.9102 113.51 80.5302C114.24 79.0602 113.89 76.8601 112.75 76.1901C112.32 78.5602 110.89 80.3702 109.35 82.1402V82.1302ZM103.59 104.39V104.59C103.86 104.66 104.12 104.77 104.38 104.81C107.12 105.23 108.6 104.44 110.34 101.8C110.74 101.19 110.54 100.53 110.34 99.7902C110.2 99.9702 110.09 100.08 110.03 100.2C109.12 101.99 107.64 103.05 105.73 103.56C105.29 103.68 104.87 103.84 104.44 104C104.15 104.11 103.87 104.26 103.58 104.39H103.59ZM89.5099 94.1402L89.2899 94.2802C89.3399 94.8202 89.2299 95.4401 89.4699 95.8701C90.1299 97.0401 92.1199 97.5502 93.3299 96.9202C93.5499 96.8102 93.7899 96.4002 93.7499 96.1802C93.6599 95.6802 93.41 95.2101 93.21 94.7301C93.2 94.7101 93.09 94.7201 93.02 94.7301C91.81 94.8001 90.6099 94.8302 89.5099 94.1502V94.1402ZM127.04 86.0501L127.17 85.8701C126.63 84.3901 125.97 82.9902 124.7 81.9602C123.93 81.3402 123.84 81.3501 123.41 82.2501C123.25 82.5901 122.87 82.9401 123.4 83.3101C123.96 83.7001 124.19 84.2501 124.17 84.9301C124.17 85.0701 124.27 85.3102 124.38 85.3402C125.26 85.6002 126.15 85.8201 127.04 86.0501ZM128.79 104.42C128.08 103.22 127.48 102.16 126.82 101.13C126.43 100.52 125.9 100.47 125.15 100.86C125.75 102.15 125.65 103.51 125.36 104.95L128.78 104.41L128.79 104.42ZM77.8599 83.8402C77.6599 83.0402 77.41 82.3901 77.34 81.7201C77.27 81.0901 77.0299 80.6201 76.5999 80.1901C76.1399 79.7401 75.9799 79.7401 75.6999 80.3101C75.1099 81.5401 75.01 82.8401 75.21 84.1701C75.27 84.5401 75.4799 84.6401 75.8099 84.5401C76.4999 84.3101 77.1899 84.0801 77.8599 83.8501V83.8402ZM141.9 79.1201C140.05 77.8301 137.24 78.4301 135.78 80.3501C136.67 80.7701 137.47 81.1501 138.48 80.4301C138.98 80.0701 139.79 80.0101 140.45 80.0501C141.21 80.0901 141.63 79.8201 141.9 79.1201ZM82.4799 106.02C80.6299 104.23 75.06 103.53 72.9 104.83L82.4799 106.02ZM121.04 105.28L121.17 105.5C122.08 105.38 123 105.26 123.91 105.12C124.04 105.1 124.21 104.98 124.25 104.86C124.67 103.68 124.79 102.49 124.25 101.19C122.94 102.47 121.82 103.74 121.05 105.28H121.04ZM105.13 64.9801C105.87 65.9701 106.54 66.8901 107.23 67.8001C107.4 68.0201 107.6 68.2401 107.84 68.3601C107.97 68.4301 108.32 68.3602 108.36 68.2602C108.62 67.6302 108.85 66.9802 109.04 66.3202C109.08 66.2002 108.97 65.9501 108.86 65.8701C107.76 65.1001 106.6 64.5301 105.14 64.9701L105.13 64.9801ZM108.95 104.87C108.82 104.92 108.73 104.94 108.66 104.98C106.79 106.07 104.86 106.31 102.84 105.38C102.7 105.32 102.45 105.35 102.33 105.44C101.89 105.8 101.48 106.2 101.06 106.58L101.12 106.72L109.46 106.47L108.95 104.87ZM128.54 101.89C128.92 102.64 129.24 103.2 129.49 103.79C129.65 104.17 129.86 104.25 130.24 104.17C131.17 103.97 132.1 103.81 133.03 103.62C133.25 103.58 133.45 103.48 133.66 103.41L133.68 103.15C132.13 102.28 130.24 102.74 128.53 101.89H128.54ZM139.53 96.3902C140.03 96.5702 140.37 96.6902 140.71 96.8002C141.9 97.1602 143.09 97.5201 144.29 97.8501C144.45 97.8901 144.8 97.8101 144.82 97.7201C144.87 97.5401 144.83 97.2501 144.71 97.1101C143.76 96.0901 141.03 95.6602 139.54 96.3802L139.53 96.3902ZM134.57 90.2602C134.69 88.9502 134.17 87.8901 133.57 86.8001L131.93 88.8001C132.73 89.2801 133.47 89.7301 134.22 90.1701C134.3 90.2201 134.42 90.2202 134.57 90.2602ZM120.55 85.4901C121.3 85.4501 121.98 85.4002 122.66 85.3802C123.62 85.3502 123.84 84.9901 123.34 84.1601C123.2 83.9301 123 83.7302 122.85 83.5302L120.56 85.4901H120.55ZM110.33 103.29C109.68 103.99 109.68 104.8 110.29 105.85C110.61 106.4 111.05 106.37 111.49 106.28L110.33 103.29ZM93.02 73.2401C92.49 74.1701 91.9499 75.0902 91.4199 76.0302C91.1999 76.4202 91.3599 76.6701 91.8199 76.8501C92.6599 75.7901 92.9 74.5401 93.02 73.2401ZM140.61 80.8402L140.47 80.5501C139.93 80.7001 139.37 80.8302 138.84 81.0302C138.71 81.0802 138.58 81.5101 138.61 81.5401C138.86 81.7301 139.28 82.0502 139.41 81.9602C139.86 81.6602 140.21 81.2202 140.6 80.8302L140.61 80.8402ZM94.0799 97.2101L92.8899 97.8201L94.8899 99.1602L94.0799 97.2101ZM151.56 98.4102C150.62 97.6902 149.69 98.0401 149.22 99.2201L151.56 98.4102ZM140.52 83.0302L140.61 83.1101L143.4 80.4401L143.33 80.3701L140.51 83.0202L140.52 83.0302Z" fill="#F6F2EB"/>
<path d="M88.3899 109.76C89.1999 109.82 90.0199 109.88 90.8299 109.93C99.4699 110.4 108.11 110.27 116.74 109.57C124.7 108.92 132.59 107.85 140.36 106.03C147.26 104.41 153.98 102.29 160.21 98.8401C161.69 98.0201 163.08 97.0702 164.52 96.1802C164.73 96.0502 164.95 95.9302 165.24 95.9102C165.04 96.0902 164.85 96.2801 164.64 96.4401C160.89 99.4001 156.62 101.4 152.17 103.04C145.07 105.66 137.71 107.24 130.26 108.46C117.83 110.5 105.31 110.89 92.7499 110.48C91.5799 110.44 90.4199 110.31 89.2499 110.21C88.9499 110.18 88.6499 110.07 88.3499 110L88.3799 109.78L88.3899 109.76Z" fill="#F6F2EB"/>
<path d="M160.94 84.9402C162.74 86.0902 163.88 89.5902 163.02 91.4302C162.63 89.1702 162.26 86.9002 160.94 84.9402Z" fill="#F6F2EB"/>
<path d="M161.32 92.8802V88.2402C161.85 89.8302 162.08 91.2602 161.32 92.8802Z" fill="#F6F2EB"/>
<path d="M41.5499 91.9301C41.1799 90.7601 42.16 87.85 43.21 87.05L41.5499 91.9301Z" fill="#F6F2EB"/>
<path d="M40.61 90.7501C40.59 88.8501 41.34 87.1801 42.64 85.8401L40.61 90.7501Z" fill="#F6F2EB"/>
<path d="M43.2599 90.7002L42.4699 93.4902C42.2199 92.7102 42.6099 91.3202 43.2599 90.7002Z" fill="#F6F2EB"/>
<path d="M112.62 92.98C112.44 93.11 112.27 93.25 112.08 93.36C110.65 94.19 109.49 95.3001 108.54 96.6501C107.23 98.5101 105.6 99.9901 103.5 100.91C103.25 101.02 103 101.12 102.69 101.11C102.82 101.02 102.94 100.9 103.09 100.84C105.3 99.88 106.87 98.2001 108.23 96.2901C109.22 94.9001 110.44 93.8001 111.99 93.0801C112.18 92.9901 112.37 92.9201 112.56 92.8401L112.64 92.97L112.62 92.98Z" fill="#F6F2EB"/>
<path d="M92.9099 105.72C94.4399 105.88 95.6399 105.12 96.9799 104.34C96.4499 105.77 93.8499 106.59 92.9099 105.72Z" fill="#F6F2EB"/>
<path d="M129.17 89.8702L124.59 88.2603C126.27 88.2803 127.73 89.0202 129.23 89.6102L129.17 89.8702Z" fill="#F6F2EB"/>
<path d="M69.4698 98.2402C69.1698 98.4202 68.9999 98.5002 68.8499 98.6002C67.7399 99.3502 66.6099 100.06 65.5399 100.86C63.7199 102.22 61.7899 102.66 59.6399 101.74C59.4499 101.66 59.2799 101.54 59.1499 101.33C59.3099 101.35 59.4699 101.35 59.6199 101.38C61.7899 101.81 63.7399 101.43 65.4199 99.9103C66.5199 98.9103 67.8099 98.3302 69.4799 98.2402H69.4698Z" fill="#F6F2EB"/>
<path d="M78 98.2502C78.52 98.0602 79.05 97.9103 79.55 97.6803C80.86 97.0803 82.22 96.5302 83.45 95.7902C85.38 94.6402 86.59 92.9202 87.03 90.6802C87.06 90.5202 87.12 90.3602 87.23 90.2202C87.19 91.3802 87 92.5003 86.4 93.5203C85.66 94.7903 84.59 95.7102 83.36 96.4802C81.81 97.4502 80.1 97.9702 78.33 98.3402C78.23 98.3602 78.12 98.3402 78.02 98.3402L77.99 98.2402L78 98.2502Z" fill="#F6F2EB"/>
<path d="M106.99 74.7501L110.72 69.6101C109.8 71.5701 108.56 73.2901 106.99 74.7501Z" fill="#F6F2EB"/>
<path d="M69.8498 87.4902C70.2298 87.6302 70.6298 87.7303 70.9798 87.9003C72.5498 88.6703 74.1198 89.4603 75.6798 90.2603C76.8198 90.8503 77.9698 91.4003 79.2898 91.4503C79.3798 91.4503 79.4698 91.5202 79.7198 91.6202C78.5998 91.8202 77.6798 91.8403 76.8098 91.4003C75.9198 90.9503 75.0398 90.4802 74.1698 90.0002C72.7198 89.2002 71.2698 88.3903 69.8198 87.5803L69.8498 87.4902Z" fill="#F6F2EB"/>
<path d="M59.3899 95.8601C59.8699 95.2601 60.3799 94.6801 60.8399 94.0601C61.5499 93.0901 62.2899 92.1301 62.9099 91.1001C63.5299 90.0701 64.2399 89.1701 65.3399 88.4001L59.6099 96.0602L59.3799 95.8601H59.3899Z" fill="#F6F2EB"/>
<path d="M94.45 143.84H111.81C106.02 144.61 100.24 144.75 94.45 143.84Z" fill="#F6F2EB"/>
<path d="M146.95 98.4602L148.3 96.8003L148.47 96.9303L147.12 98.6202L146.94 98.4602H146.95Z" fill="#F6F2EB"/>
<path d="M114.65 71.3901C116.74 71.3201 118.7 72.3401 119.22 73.8301C117.81 72.6601 116.39 71.7201 114.65 71.3901Z" fill="#F6F2EB"/>
<path d="M118.66 105.07C118.06 104.34 117.87 103.51 118.17 102.65C118.4 102.01 118.73 101.38 119.14 100.83C120.23 99.3702 121.64 98.2502 123.29 97.4702C123.65 97.3002 124.04 97.1903 124.41 97.0503L124.48 97.2002C124.3 97.3102 124.13 97.4203 123.95 97.5103C122.48 98.2403 121.23 99.2703 120.07 100.42C118.75 101.72 118.12 103.2 118.66 105.07Z" fill="#F6F2EB"/>
<path d="M115.14 67.0801C116.34 67.0001 117.73 67.9601 118.14 69.1701C117.31 68.2201 116.43 67.3501 115.14 67.0801Z" fill="#F6F2EB"/>
<path d="M96.2499 93.3901C96.4699 95.8301 97.6799 97.7801 99.3499 99.5701C97.8099 99.2801 95.4999 95.5101 96.2499 93.3901Z" fill="#F6F2EB"/>
<path d="M98.31 87.4402L96.84 91.0702C96.7 90.4002 97.53 88.2702 98.31 87.4402Z" fill="#F6F2EB"/>
<path d="M134.88 83.5C136.47 84.07 137.57 85.02 138 86.6C138.62 88.88 137.99 91.08 137.43 93.28C137.54 92.23 137.71 91.19 137.73 90.14C137.75 89.02 137.73 87.89 137.55 86.79C137.34 85.41 136.54 84.37 135.23 83.79C135.15 83.76 135.08 83.71 135 83.67C134.97 83.65 134.96 83.61 134.88 83.5Z" fill="#F6F2EB"/>
<path d="M74.8301 69.3701C75.1401 68.0001 75.61 66.9801 76.79 66.3901L74.8301 69.3701Z" fill="#F6F2EB"/>
<path d="M132.65 80.1801L131.79 77.5701C132.48 78.3001 132.78 79.1801 132.65 80.1801Z" fill="#F6F2EB"/>
<path d="M91.01 87.8901C92.35 89.3701 92.48 92.6201 91.22 93.5501C91.33 92.6201 91.56 91.6601 91.52 90.7201C91.48 89.7701 91.19 88.8201 91.01 87.8901Z" fill="#F6F2EB"/>
<path d="M47.5599 121.08C51.2499 125.77 56.0799 129.55 61.5099 132C62.7299 132.55 63.9799 133.04 65.1799 133.64C67.0199 134.56 68.7299 135.76 70.2299 137.17C71.8499 141.15 76.37 143.02 80.53 144.11C94.4 147.76 109.2 147.34 123.11 143.83C127 142.85 131.19 141.36 133.21 137.88C133.7 137.04 134.05 136.1 134.75 135.42C135.63 134.57 136.91 134.3 137.98 133.7C140.08 132.53 141.26 130.19 143.21 128.79C144.68 127.73 146.3 127.21 147.73 126.05C148.24 125.64 148.74 125.23 149.24 124.81C152.73 121.86 155.78 118.38 158.26 114.53C158.91 113.53 158.71 112.79 159.46 111.86C160.21 110.93 161.11 110.23 161.82 109.29C163.18 107.49 164.19 105.46 164.98 103.35C165.83 101.08 166.4 98.7101 166.85 96.3301C167.25 94.2201 167.17 91.6902 167.84 89.6602C166.81 92.7802 162.24 92.5202 159.61 94.4902C158.64 95.2202 157.96 96.2501 157.08 97.0801C155 99.0401 152.33 99.3202 149.79 100.3C147.25 101.27 144.97 102.09 142.25 102.7C135.86 104.12 129.44 105.45 122.96 106.41C118.33 107.09 113.65 107.58 108.96 107.49C107.07 107.45 105.28 107.19 103.43 107.55C101.48 107.93 99.5599 108.29 97.5599 108.38C95.4099 108.48 93.2699 108.3 91.1299 108.13C87.7899 107.85 84.44 107.58 81.14 106.96C75.65 105.93 70.4899 106.91 65.0699 105.87C62.1199 105.3 59.2799 104.23 56.4699 103.17L43.8699 98.4002C43.0099 98.0702 42.1099 97.7202 41.4899 97.0402C40.1599 95.5702 40.0999 94.1202 38.1799 93.1602C36.3699 92.2502 36.5199 92.4402 35.6599 90.8902C36.8199 92.9802 37.04 96.2502 37.65 98.6402C38.36 101.39 39.1399 104.12 40.0699 106.81C41.8599 111.91 44.2099 116.85 47.5699 121.11L47.5599 121.08Z" fill="#F6F2EB"/>
<path d="M126.1 74.41C126.86 74.25 127.49 73.64 128.27 73.62C128.83 73.6 129.34 73.9 129.8 74.21C132.21 75.83 134.07 78.24 135.04 80.97C135.97 81.03 136.53 80.03 137.17 79.36C138.79 77.67 141.77 77.96 143.54 79.49C145.31 81.02 146.07 83.43 146.34 85.76C146.4 86.29 146.45 86.85 146.73 87.3C147.66 88.79 149.95 87.98 151.67 88.37C154.45 89 155.19 92.61 157.25 94.58C159.25 96.5 162.65 96.63 164.91 95.03C167.17 93.43 168.18 90.33 167.5 87.64C166.92 85.37 165.32 83.5 163.64 81.87C161.88 80.16 159.95 78.59 157.81 77.39C152.95 74.66 147.24 73.93 142.02 71.98C138.62 70.71 135.39 68.9 131.83 68.24C129.79 67.86 127.56 67.94 125.61 68.69C123.66 69.44 122.74 70.5 120.53 70.13C122.3 71.25 123.57 74.97 126.11 74.42L126.1 74.41Z" fill="#F6F2EB"/>
<path d="M46.3899 91.6C48.4999 90.18 51.1299 89.8101 53.6599 89.5301C54.0499 89.4901 54.4699 89.4301 54.7499 89.1501C55.3299 88.5801 54.8999 87.62 54.9799 86.81C55.0599 85.91 55.7899 85.2301 56.4699 84.6401C61.5599 80.2101 66.7299 75.72 72.8299 72.81L72.2899 75.31L66.8099 75.23C68.2799 75.21 69.7899 75.1801 71.1599 74.6501C72.4799 74.1401 73.8299 73.0101 73.9399 71.5201C72.2799 70.9801 69.1499 71.55 67.2699 71.55C63.5699 71.54 59.8799 72.2 56.4099 73.48C55.0899 73.97 53.7999 74.5501 52.5199 75.1301C50.6299 75.9801 48.7199 76.79 46.8499 77.68C45.2099 78.46 44.5799 79.43 43.4099 80.8C41.7899 82.71 39.43 83.9901 38.15 86.1501C36.87 88.3201 36.9499 91.22 38.3499 93.31C39.5999 95.18 41.7499 96.54 43.6099 97.74C43.3499 95.3 44.2599 93.0101 46.3699 91.5801L46.3899 91.6Z" fill="#F6F2EB"/>
<path d="M102 199.52C155.721 199.52 199.27 155.971 199.27 102.25C199.27 48.5293 155.721 4.97998 102 4.97998C48.2793 4.97998 4.72998 48.5293 4.72998 102.25C4.72998 155.971 48.2793 199.52 102 199.52Z" stroke="#F6F2EB" stroke-width="8.84" stroke-miterlimit="10"/>
</svg>
