<svg width="204" height="204" viewBox="0 0 204 204" fill="none" xmlns="http://www.w3.org/2000/svg">
<path d="M102.18 199.52C155.901 199.52 199.45 155.971 199.45 102.25C199.45 48.5293 155.901 4.97998 102.18 4.97998C48.4592 4.97998 4.90991 48.5293 4.90991 102.25C4.90991 155.971 48.4592 199.52 102.18 199.52Z" stroke="#F6F2EB" stroke-width="8.84" stroke-miterlimit="10"/>
<path d="M159.126 104.056C159.226 135.408 133.444 162.272 99.9039 161.267C70.1437 160.372 44.7155 135.739 44.6934 104.001C44.7265 72.616 70.2984 46.4362 102.777 46.8893C133.532 47.3203 159.038 72.1077 159.137 104.056H159.126ZM101.208 154.957C129.731 155.31 153.822 132.136 152.728 101.901C151.777 75.8649 130.405 53.3763 101.948 53.1995C73.7021 53.2437 51.4676 75.8761 51.0587 103.216C50.6277 132.125 73.7243 154.614 101.208 154.957Z" fill="#F6F2EB"/>
<path d="M152.728 101.901C153.833 132.136 129.742 155.31 101.208 154.957C73.7244 154.614 50.6389 132.125 51.0589 103.216C51.4677 75.8761 73.7022 53.2547 101.948 53.1995C130.405 53.3652 151.777 75.8539 152.728 101.901ZM147.998 105.338C148.65 79.4675 127.896 57.8961 101.948 57.9292C75.6914 57.9624 56.9158 78.9924 55.866 101.691C54.5841 129.462 77.1502 150.426 101.871 150.161C127.311 150.304 147.401 129.506 148.009 105.338H147.998Z" fill="#F6F2EB"/>
<path d="M143.743 102.896C143.832 106.487 143.854 106.487 140.218 106.487H139.201C138.107 106.476 137.002 106.432 135.908 106.487C135.013 106.532 134.637 106.278 134.637 105.294C134.615 101.791 134.582 101.791 138.096 101.791C139.621 101.791 141.146 101.824 142.66 101.791C143.5 101.769 143.732 102.111 143.743 102.907V102.896Z" fill="#F6F2EB"/>
<path d="M138.914 84.5733C139.036 84.8275 138.804 85.4906 138.538 85.6564C136.45 86.9272 134.317 88.1538 132.162 89.3252C131.908 89.4689 131.245 89.3253 131.068 89.0932C128.78 86.0873 128.835 85.8331 132.051 83.9434C133.433 83.1257 134.825 82.3411 136.217 81.5454C136.394 81.4459 136.604 81.3686 136.958 81.2139C137.654 82.3853 138.35 83.4572 138.903 84.5844L138.914 84.5733Z" fill="#F6F2EB"/>
<path d="M139.301 122.942C138.571 124.191 137.952 125.329 137.245 126.412C137.112 126.622 136.549 126.81 136.35 126.699C133.963 125.373 131.609 123.992 129.112 122.533C129.797 121.318 130.382 120.168 131.079 119.085C131.233 118.853 131.874 118.654 132.106 118.787C134.493 120.113 136.836 121.505 139.301 122.942Z" fill="#F6F2EB"/>
<path d="M124.691 103.537C124.691 106.454 124.691 106.476 121.73 106.476C116.779 106.487 111.828 106.476 106.866 106.465C106.037 106.465 105.385 106.609 104.722 107.25C103.009 108.874 100.434 108.708 98.7877 107.029C97.2074 105.415 97.2517 102.851 98.7547 101.017C99.1857 100.498 99.495 99.7019 99.495 99.0388C99.5392 87.3138 99.5503 75.5887 99.495 63.8636C99.495 62.659 99.7934 62.2612 101.031 62.2944C104.203 62.3717 104.203 62.3165 104.203 65.5323V81.5341C104.203 87.38 104.203 93.215 104.203 99.061C104.203 100.951 105.109 101.824 106.999 101.824C112.292 101.824 117.585 101.824 122.868 101.824C124.647 101.824 124.647 101.824 124.647 103.548L124.691 103.537Z" fill="#F6F2EB"/>
<path d="M124.382 138.347C124.526 138.623 124.315 139.331 124.039 139.53C120.956 141.773 120.934 141.762 119.055 138.579C118.116 136.988 117.21 135.386 116.204 133.628C117.431 132.932 118.525 132.38 119.53 131.716C120.116 131.33 120.481 131.462 120.768 131.971C121.995 134.081 123.233 136.192 124.371 138.347H124.382Z" fill="#F6F2EB"/>
<path d="M121.387 67.0687C122.536 67.6544 123.641 68.3506 124.857 69.0689C123.442 71.5333 122.127 73.8871 120.735 76.1857C120.58 76.4288 119.873 76.5835 119.564 76.4509C118.613 76.0199 117.696 75.4785 116.834 74.8707C116.624 74.7159 116.491 74.097 116.624 73.8539C117.828 71.6769 119.077 69.522 120.37 67.4002C120.514 67.1571 121.144 66.9582 121.376 67.0687H121.387Z" fill="#F6F2EB"/>
<path d="M119.674 42.1157C120.934 42.1047 121.398 42.4473 121.354 43.7623C121.221 47.2876 121.895 46.9561 118.182 46.9671C106.921 46.9671 95.6603 46.9671 84.3883 46.9671C82.5538 46.9671 82.5206 46.9339 82.5206 45.1326C82.5206 41.6516 82.2553 42.171 85.5043 42.1599C90.9635 42.1378 96.4228 42.1599 101.893 42.1599C107.827 42.1599 113.751 42.1931 119.674 42.1379V42.1157Z" fill="#F6F2EB"/>
<path d="M104.214 137.01C104.214 139.828 104.247 142.436 104.18 145.055C104.18 145.375 103.661 145.906 103.34 145.95C102.39 146.072 101.396 146.049 100.434 145.961C100.136 145.928 99.6384 145.541 99.6274 145.298C99.5721 142.568 99.5942 139.828 99.5942 137.01H104.225H104.214Z" fill="#F6F2EB"/>
<path d="M87.0181 133.352C87.217 133.485 87.2945 134.126 87.1509 134.38C85.8579 136.701 84.5096 138.988 83.0619 141.497C81.8242 140.778 80.6749 140.17 79.5919 139.452C79.3709 139.297 79.2162 138.646 79.3599 138.402C80.6639 136.049 82.0231 133.728 83.4598 131.252C84.7306 131.982 85.913 132.623 87.0181 133.352Z" fill="#F6F2EB"/>
<path d="M87.0075 73.5112C87.1291 73.7322 87.2616 73.9422 87.4605 74.2848C87.2616 74.5058 87.0959 74.8042 86.8417 74.9589C85.9908 75.5004 85.1399 76.064 84.2116 76.4508C83.9022 76.5834 83.1728 76.3624 82.996 76.075C81.7362 74.0417 80.5316 71.9641 79.4044 69.8424C79.2497 69.555 79.5813 69.0135 79.6918 68.5825C79.6918 68.5494 79.758 68.5383 79.7912 68.5162C81.8909 67.1385 83.5596 67.5216 84.7973 69.6655C85.5377 70.9364 86.2671 72.2183 87.0075 73.4892V73.5112Z" fill="#F6F2EB"/>
<path d="M74.1111 85.3137C74.31 85.4353 74.3763 86.0652 74.2547 86.3526C73.9122 87.1593 73.4038 87.9107 73.017 88.6954C72.6192 89.491 72.144 89.701 71.3262 89.2037C69.3481 87.9991 67.3479 86.8167 65.3256 85.6895C64.6626 85.3249 64.6404 84.9601 64.994 84.3855C65.6129 83.3798 66.1764 82.3521 66.8837 81.1365C69.3923 82.5731 71.7793 83.8992 74.1221 85.3137H74.1111Z" fill="#F6F2EB"/>
<path d="M72.7628 119.185C73.448 120.19 74.0225 121.285 74.7298 122.511C72.2765 123.948 69.9558 125.329 67.602 126.633C67.3478 126.766 66.6737 126.567 66.4969 126.313C65.7786 125.274 65.1929 124.158 64.4746 122.942C66.9279 121.506 69.2818 120.102 71.6688 118.776C71.9009 118.643 72.575 118.897 72.7628 119.174V119.185Z" fill="#F6F2EB"/>
<path d="M69.0604 101.791V106.465C66.2203 106.465 63.4466 106.476 60.6728 106.432C60.4628 106.432 60.2419 106.034 60.0761 105.791C59.9988 105.669 60.054 105.46 60.054 105.294C59.9877 102.951 61.1259 101.783 63.4687 101.791C65.2811 101.791 67.0934 101.791 69.0604 101.791Z" fill="#F6F2EB"/>
</svg>
