<svg width="205" height="204" viewBox="0 0 205 204" fill="none" xmlns="http://www.w3.org/2000/svg">
<path d="M121.78 137.15C124.3 138.64 125.18 140.91 125.14 143.75C125.07 148.77 125.16 153.78 125.11 158.8C125.06 163.4 122.8 165.69 118.27 165.71C107.63 165.75 97 165.75 86.36 165.71C82.03 165.69 79.73 163.34 79.68 158.94C79.62 154.22 79.73 149.51 79.65 144.79C79.6 141.65 79.93 138.76 83.16 137.13C78.25 132.92 78.1 118.08 82.72 114.35C78.28 110.19 78.23 95.5599 82.82 91.7699C80 90.1299 79.89 87.4499 79.57 84.5599C78.66 76.2999 80.79 69.2399 86.33 63.0099C88.91 60.1099 90.3 55.5099 93.39 53.8799C96.47 52.2599 101.05 53.7299 104.9 53.2299C109.91 52.5899 113.35 54.1399 115.48 58.7699C116.14 60.2099 117.11 61.5799 118.2 62.7199C124.41 69.2199 126.32 76.9999 125.06 85.6599C124.76 87.7599 123.75 89.7599 122.9 92.2899C126.54 94.5399 125.05 99.0699 125.04 103.07C125.03 106.99 126.58 111.53 121.92 114.21C126.69 118.09 126.58 132.28 121.77 137.15H121.78ZM88.49 141.28C85.03 140.78 85.01 140.78 84.99 143.86C84.97 148.26 85.1 152.67 84.94 157.07C84.84 159.96 86.14 160.22 88.48 159.51V141.28H88.49ZM88.69 87.7899C88.69 83.4199 88.67 79.1399 88.7 74.8699C88.71 73.4999 88.48 72.5499 86.77 72.5999C85 72.6499 84.98 73.7499 84.99 75.0399C85.01 78.4299 85.12 81.8299 84.96 85.2099C84.84 87.8099 85.73 88.7399 88.7 87.7899H88.69ZM88.69 110.07C88.69 105.7 88.68 101.42 88.69 97.1399C88.69 95.8499 88.59 94.4299 86.88 94.8999C86.1 95.1099 85.13 96.34 85.08 97.16C84.88 100.65 85.12 104.16 84.95 107.65C84.83 110.26 85.95 110.83 88.68 110.06L88.69 110.07ZM88.69 124.81C88.69 122.91 88.85 120.99 88.61 119.12C88.51 118.36 87.52 117.72 86.93 117.02C86.28 117.67 85.11 118.3 85.08 118.98C84.9 122.87 84.9 126.78 85.08 130.67C85.11 131.34 86.29 131.96 86.94 132.61C87.52 131.91 88.51 131.26 88.6 130.5C88.84 128.63 88.68 126.71 88.68 124.81H88.69ZM95.86 56.3899L94.71 55.5999C91.9 59.6799 89.1 63.7499 86.29 67.8299L86.79 68.6899C88.26 68.2399 90.53 68.2199 91.07 67.2499C92.99 63.8099 94.32 60.0399 95.87 56.3899H95.86Z" fill="#F6F2EB"/>
<path d="M88.69 124.81C88.69 122.91 88.85 120.99 88.61 119.12C88.51 118.36 87.52 117.72 86.93 117.02C86.28 117.67 85.11 118.3 85.08 118.98C84.9 122.87 84.9 126.78 85.08 130.67C85.11 131.34 86.29 131.96 86.94 132.61C87.52 131.91 88.51 131.26 88.6 130.5C88.84 128.63 88.68 126.71 88.68 124.81H88.69Z" fill="#F6F2EB"/>
<path d="M88.69 110.07C88.69 105.7 88.68 101.42 88.69 97.1399C88.69 95.8499 88.59 94.4299 86.88 94.8999C86.1 95.1099 85.13 96.34 85.08 97.16C84.88 100.65 85.12 104.16 84.95 107.65C84.83 110.26 85.95 110.83 88.68 110.06L88.69 110.07Z" fill="#F6F2EB"/>
<path d="M88.69 87.7899C88.69 83.4199 88.67 79.1399 88.7 74.8699C88.71 73.4999 88.48 72.5499 86.77 72.5999C85 72.6499 84.98 73.7499 84.99 75.0399C85.01 78.4299 85.12 81.8299 84.96 85.2099C84.84 87.8099 85.73 88.7399 88.7 87.7899H88.69Z" fill="#F6F2EB"/>
<path d="M95.86 56.3899L94.71 55.5999C91.9 59.6799 89.1 63.7499 86.29 67.8299L86.79 68.6899C88.26 68.2399 90.53 68.2199 91.07 67.2499C92.99 63.8099 94.32 60.0399 95.87 56.3899H95.86Z" fill="#F6F2EB"/>
<path d="M88.49 141.28C85.03 140.78 85.01 140.78 84.99 143.86C84.97 148.26 85.1 152.67 84.94 157.07C84.84 159.96 86.14 160.22 88.48 159.51V141.28H88.49Z" fill="#F6F2EB"/>
<path d="M92.7 50.35C92.54 49.94 92.41 49.75 92.41 49.57C92.08 39.77 92.0599 38.42 102.24 38.83C102.44 38.83 102.64 38.83 102.84 38.83C111.61 38.52 113.31 38.65 112.15 50.35H92.7Z" fill="#F6F2EB"/>
<path d="M102.4 199.52C156.121 199.52 199.67 155.971 199.67 102.25C199.67 48.5293 156.121 4.97998 102.4 4.97998C48.6791 4.97998 5.12988 48.5293 5.12988 102.25C5.12988 155.971 48.6791 199.52 102.4 199.52Z" stroke="#F6F2EB" stroke-width="8.84" stroke-miterlimit="10"/>
</svg>
