<svg width="48" height="48" viewBox="0 0 48 48" fill="none" xmlns="http://www.w3.org/2000/svg">
<path d="M23.8099 0.48999C36.8499 0.52999 47.3999 11.12 47.3499 24.1C47.2999 37.08 36.6099 47.66 23.6499 47.57C10.5999 47.48 0.0899138 36.91 0.149914 23.92C0.209914 11.12 10.5899 0.56999 23.8099 0.49999V0.48999ZM1.57991 24.04C1.56991 36.2 11.4399 46.09 23.6199 46.13C35.9499 46.17 45.8899 36.33 45.9099 24.06C45.9299 11.85 36.0099 1.93999 23.7499 1.91999C11.4899 1.89999 1.58991 11.77 1.57991 24.03V24.04Z" fill="#11721D"/>
<path d="M1.58985 24.04C1.59985 11.78 11.4899 1.90996 23.7599 1.92996C36.0199 1.94996 45.9399 11.86 45.9199 24.07C45.8999 36.34 35.9599 46.18 23.6299 46.14C11.4499 46.1 1.57985 36.2 1.58985 24.05V24.04ZM1.98985 23.97C2.05985 36.11 11.8199 45.81 23.8899 45.73C35.8199 45.65 45.5899 35.84 45.5199 24C45.4499 11.88 35.6599 2.25996 23.4599 2.31996C11.7099 2.37996 1.92986 12.25 1.99986 23.97H1.98985Z" fill="#11721D"/>
<path d="M1.98997 23.97C1.91997 12.25 11.7 2.38996 23.45 2.31996C35.65 2.24996 45.45 11.88 45.51 24C45.58 35.85 35.81 45.66 23.88 45.73C11.82 45.81 2.04998 36.1 1.97998 23.97H1.98997ZM23.1 45.45C34.76 45.82 44.54 36.76 45.23 25.13C45.92 13.52 36.75 3.30996 24.91 2.61996C13.19 1.93996 3.01998 10.94 2.29998 22.74C1.56998 34.9 11.06 45.06 23.1 45.45Z" fill="#11721D"/>
<path d="M33.88 24.7299C35.09 25.7399 35.86 26.6499 36.17 27.9299C36.53 29.3699 36.34 30.6399 35.34 31.7299C32.74 34.5699 29.5 35.6099 25.75 34.7999C22.18 34.0199 20.93 30.1499 23.28 27.3499C23.92 26.5899 24.64 25.8899 25.26 25.2299C25.01 24.4899 24.67 23.7699 24.54 23.0099C24.23 21.1699 25 19.6499 26.22 18.3599C28.25 16.1999 31.92 15.6699 34.41 17.0899C36.77 18.4299 37.29 21.2899 35.52 23.3499C35.09 23.8499 34.5 24.2099 33.88 24.7299ZM28.51 33.4699L28.56 33.2799C30.14 33.3799 31.48 32.8399 32.68 31.8299C34.13 30.6099 34 29.1299 32.27 28.3399C30.63 27.5899 28.95 26.9499 27.27 26.2899C27.09 26.2199 26.73 26.2699 26.61 26.4099C25.94 27.1899 25.24 27.9499 24.71 28.8199C23.83 30.2599 24.25 31.8399 25.76 32.6099C26.6 33.0399 27.59 33.1899 28.52 33.4699H28.51ZM30.78 17.9699C30 18.2099 29.28 18.2699 28.76 18.6099C27.39 19.5199 27.46 21.3799 28.91 22.3699C29.6 22.8399 30.42 23.1299 31.2 23.4599C32.72 24.0899 32.73 24.0799 33.8 22.8599C34.91 21.6099 34.77 19.8499 33.35 18.9499C32.58 18.4599 31.62 18.2799 30.79 17.9699H30.78Z" fill="#11721D"/>
<path d="M14.08 22.6399C15.32 22.6899 16.55 22.6799 17.76 22.8299C18.46 22.9199 19.16 23.1999 19.8 23.5199C21.77 24.4999 22.42 26.3199 21.46 28.2999C20.24 30.8399 18.3 32.6499 15.6 33.5599C14.11 34.0699 12.58 34.4499 10.98 34.0499C10.1 33.8299 9.30001 33.4499 8.85001 32.6499C8.69001 32.3699 8.72001 31.8499 8.89001 31.5699C9.14001 31.1499 9.56001 31.2699 9.96001 31.5299C12.25 32.9999 14.87 32.9599 16.64 31.3999C17.87 30.3099 18.29 28.8799 17.99 27.2799C17.8 26.2799 16.72 25.4699 15.42 25.4299C14.61 25.4099 13.79 25.5699 12.98 25.6999C12.15 25.8399 11.87 25.6399 12.08 24.8299C12.54 23.0399 13.04 21.2599 13.57 19.4899C13.82 18.6699 14.41 18.2099 15.3 18.2299C16.3 18.2599 17.31 18.2999 18.31 18.3199C19.6 18.3599 20.75 18.0799 21.59 16.9599C21.75 16.7399 22.24 16.7699 22.58 16.6799C22.58 17.0099 22.68 17.3799 22.55 17.6499C21.27 20.2999 18.62 21.2999 15.87 20.2099C15.49 20.0599 15.11 19.9199 14.76 19.7899L14.07 22.6399H14.08Z" fill="#11721D"/>
<path d="M38.7099 17.42C38.5399 17.5 38.3599 17.59 38.1899 17.67C37.9799 17.77 37.7699 17.88 37.5599 17.99L37.3699 17.19L37.5899 17.36C38.3099 16.99 39.0299 16.6 39.7599 16.26C39.9299 16.18 40.3299 16.19 40.3499 16.24C40.4599 16.61 40.6299 17.04 40.5199 17.37C40.3999 17.75 40.0099 18.05 39.6699 18.46C39.9299 18.42 40.1399 18.42 40.2999 18.34C40.9699 18.03 41.2999 18.29 41.4499 18.95C41.6099 19.66 41.1499 19.65 40.6599 19.75C40.1699 19.85 39.6699 20.03 39.2399 20.29C38.6099 20.67 38.2599 20.57 38.1699 19.85C38.1099 19.4 38.4599 18.9 38.0099 18.48C37.9799 18.45 38.1499 18.19 38.2599 18.07C38.4299 17.89 38.6299 17.74 38.8199 17.57L38.7199 17.41L38.7099 17.42Z" fill="#11721D"/>
<path d="M16.6399 9.54994L17.3999 10.5599C17.1399 10.6699 16.8399 10.8999 16.5899 10.8499C16.4399 10.8199 16.3499 10.3899 16.2399 10.1299C15.9499 9.43994 15.6599 8.74995 15.3499 8.02995C15.8099 7.61661 16.5499 7.72328 17.5699 8.34995C17.5199 8.10995 17.5099 7.90994 17.4399 7.71994C17.1499 6.96994 17.7699 6.88995 18.1899 6.77995C18.6899 6.64995 18.8999 6.93994 18.9599 7.45994C19.0099 7.89994 19.2199 8.32995 19.3599 8.75995C19.4399 9.01995 19.6399 9.45995 19.5699 9.49995C19.2499 9.71995 18.8599 9.82994 18.4899 9.95994C18.4499 9.96994 18.3299 9.81995 18.3299 9.82995C17.5899 10.5199 17.2299 9.76995 16.7799 9.34995L16.6399 9.53995V9.54994Z" fill="#11721D"/>
<path d="M9.07999 20.29C8.23999 20.03 7.43999 19.81 6.67999 19.51C6.48999 19.44 6.25999 19.06 6.29999 18.89C6.43999 18.35 6.61998 17.8 6.91998 17.33C7.30998 16.73 9.60998 16.96 9.73998 17.63C9.84998 18.19 9.64999 18.83 9.50999 19.42C9.41999 19.78 9.17999 20.1 9.07999 20.28V20.29Z" fill="#11721D"/>
<path d="M12.9499 10.61C13.3099 9.56334 13.6433 9.07 13.9499 9.13L13.6599 10.18L15.9999 11.19C15.4999 11.51 15.1299 11.93 14.7599 11.93C14.3499 11.93 13.9499 11.54 13.5399 11.32L13.3799 11.49L14.3599 12.46L13.1699 13.43C13.0099 13.1 12.9099 12.79 12.7299 12.54C12.4599 12.17 12.1299 11.86 11.8399 11.5C11.6699 11.3 11.3599 10.96 11.4099 10.88C11.5899 10.6 11.8799 10.33 12.1899 10.2C12.3299 10.14 12.6099 10.43 12.8199 10.56C12.8599 10.58 12.9099 10.59 12.9599 10.61H12.9499Z" fill="#11721D"/>
<path d="M24.9499 7.19999C24.8799 7.34999 25.1699 8.17999 24.1299 7.64999L24.3599 8.73999C24.6199 8.50999 24.7499 8.29999 24.9099 8.25999C25.1499 8.19999 25.4399 8.21999 25.6799 8.28999C25.7799 8.31999 25.8899 8.66998 25.8499 8.70998C25.6899 8.85998 25.4599 9.01999 25.2499 9.03999C24.6099 9.07999 23.9699 9.05998 23.3299 9.05998C22.9299 9.05998 22.8199 8.88999 22.8499 8.47998C22.8999 7.79998 22.8499 7.11999 22.8899 6.43999C22.8999 6.24999 23.0899 5.90999 23.2099 5.90999C23.8699 5.88999 24.5499 5.87999 25.1899 6.01999C25.4799 6.07999 25.6999 6.49999 25.9499 6.74999L24.9399 7.19999H24.9499Z" fill="#11721D"/>
<path d="M36.8999 16.4699C36.0899 16.0199 35.9399 15.4899 36.3299 14.7799C36.4399 14.5799 36.2999 14.2399 36.2799 13.9699L35.4599 14.1199L35.4399 14.3199C35.2799 14.2099 35.0999 14.1099 34.9699 13.9699C34.8299 13.8199 34.7499 13.6299 34.6399 13.4499C34.8199 13.3799 34.9799 13.2799 35.1699 13.2399C35.8899 13.0799 36.6099 12.8999 37.3399 12.7899C37.6299 12.7499 38.0699 12.7899 38.2199 12.9599C38.3699 13.1399 38.3599 13.5999 38.2399 13.8499C37.8399 14.7199 37.3599 15.5599 36.8899 16.4599L36.8999 16.4699Z" fill="#11721D"/>
<path d="M10.4199 15.46L11.1599 15.8L10.4299 16.85C9.89992 15.88 9.41992 15.08 8.99992 14.24C8.69992 13.66 8.94991 13.15 9.51991 13.22C10.5499 13.35 11.5599 13.57 12.7199 13.78C12.4699 14.19 12.2699 14.59 12.0099 14.93C11.9299 15.04 11.5799 15.1 11.4999 15.03C10.8299 14.42 10.7099 15.05 10.4299 15.45L10.4199 15.46Z" fill="#11721D"/>
<path d="M32.2699 11.81L30.7699 10.86L30.9799 10.76L30.5699 9.60002L29.8799 10.2L29.9699 10.46L29.0399 10.22L29.0699 10.1L29.7999 10.32L29.8599 10.19L28.9399 9.67002C29.6899 9.09002 30.3999 8.51002 31.1399 7.98002C31.7099 7.56002 32.2499 7.80002 32.2699 8.48002C32.2999 9.52002 32.2699 10.57 32.2699 11.81Z" fill="#11721D"/>
<path d="M13.62 27.04C13.88 27.17 14.13 27.37 14.4 27.42C15.02 27.53 15.43 27.73 15.42 28.49C15.42 29.04 16.06 29.24 16.6 28.98C16.86 28.85 17.18 28.85 17.48 28.8C17.45 29.09 17.49 29.42 17.37 29.66C17.06 30.25 16.84 30.95 16.01 31.21L13.48 27.13L13.63 27.04H13.62Z" fill="#11721D"/>
<path d="M33.8 12.8C33.5 12.65 33.19 12.57 32.97 12.39C32.64 12.12 32.57 11.72 33.01 11.52C33.74 11.17 33.8 10.61 33.72 9.92002C33.68 9.60002 33.81 9.27002 33.87 8.90002C35.12 9.47002 35.27 9.86002 34.77 10.96C35.32 11.06 35.77 10.12 36.32 10.81C36.45 10.98 36.47 11.23 36.56 11.51H35.61L36.2 11.33C35.09 11.15 34.66 11.41 33.8 12.81V12.8Z" fill="#11721D"/>
<path d="M32.66 38.96L33.4 38.42L33.25 38.23L32.38 38.68L32.27 38.51L34.41 36.98L34.55 37.15L33.63 37.95L33.73 38.1L34.69 37.57L35.77 39.07L33.77 40.53L32.65 38.96H32.66Z" fill="#11721D"/>
<path d="M14.5699 39.34L14.1299 38.79L13.9199 40.3L13.7499 40.32L13.3299 39.62C13.0399 39.57 12.7299 39.59 12.4999 39.46C12.2699 39.33 12.1199 39.05 11.9099 38.8L12.6199 38.27C12.7999 37.76 12.8599 37.37 13.0699 37.07C13.1599 36.94 13.6299 36.89 13.7699 36.99C14.3199 37.41 14.8199 37.91 15.3399 38.38C15.0799 38.68 14.2199 38.53 14.5699 39.32V39.34Z" fill="#11721D"/>
<path d="M30.1399 39.95C30.0799 40.76 31.1099 41.48 30.2799 42.43C29.5499 41.46 29.1499 41.57 28.3799 42.91L27.6899 40.72L28.9099 39.95H30.1299H30.1399Z" fill="#11721D"/>
<path d="M19.7998 41.77L18.6598 41.5L19.3398 42.52L19.0298 42.83L18.5298 41.63L17.9598 42.51V41.66L16.8798 41.88L16.8198 41.72L17.8798 41.28L16.9798 40.8L17.8698 39.95L17.4498 39.7L17.5398 39.48L20.0398 40.27L19.9998 40.48L19.5098 40.51L19.7998 41.77Z" fill="#11721D"/>
<path d="M29.1999 16.1299C28.9999 16.0799 28.6499 16.0699 28.6199 15.9699C28.3799 15.1999 27.7099 15.0199 27.0799 14.8299C24.5699 14.0799 22.1099 14.2099 19.7099 15.3099C19.4999 15.4099 19.2899 15.4999 19.1399 15.5699L19.2599 14.4899C19.7799 14.3599 20.4599 14.0599 21.1399 14.0599C22.6999 14.0599 24.2699 14.1299 25.8099 14.3299C26.8399 14.4699 27.8399 14.8599 28.8299 15.2099C29.0499 15.2899 29.1599 15.6599 29.3199 15.8899L29.1899 16.1199L29.1999 16.1299Z" fill="#11721D"/>
<path d="M24.7698 42.84H22.5898L22.7098 41.43L23.0498 41.59L23.1698 41.38L22.3098 40.93C22.8998 40.89 23.3298 40.86 23.7698 40.83C24.1498 40.8 24.5398 40.76 24.7998 40.74C24.9398 41.39 25.0198 41.84 25.1198 42.28C25.2598 42.86 24.9898 43.27 24.3698 43.31L24.7698 42.85V42.84ZM23.5798 41.55H23.3698C23.3698 41.81 23.2898 42.29 23.3798 42.32C23.7598 42.47 24.1998 42.49 24.6198 42.56L24.6498 42.35L23.6598 42.21L23.5798 41.55Z" fill="#11721D"/>
<path d="M20.76 9.23997C20.52 8.35997 20.29 7.53997 20.09 6.71997C20.06 6.59997 20.13 6.33997 20.18 6.32997C20.55 6.25997 20.93 6.17997 21.29 6.23997C21.42 6.25997 21.56 6.62997 21.59 6.85997C21.69 7.48997 21.74 8.13997 21.82 8.87997L20.76 9.23997Z" fill="#11721D"/>
<path d="M25.19 18.25C24.59 17.35 23.36 17.44 23.01 16.38L24.16 16.97L24.43 16.67L24.72 17.34L25.06 16.9C25.14 17.06 25.2 17.17 25.25 17.28C25.32 17.46 25.19 17.9 25.65 17.58C25.65 17.58 25.84 17.74 25.83 17.82C25.82 17.95 25.75 18.14 25.66 18.18C25.46 18.26 25.22 18.25 25.21 18.25H25.19Z" fill="#11721D"/>
<path d="M17.5898 17.93C18.4998 16.92 20.3899 16.19 20.9799 16.48L17.5898 17.93Z" fill="#11721D"/>
<path d="M18.3999 32.51C18.5899 32.47 18.8799 32.32 18.9599 32.4C19.9399 33.3 21.1999 33.34 22.3999 33.57C22.4699 33.58 22.5399 33.61 22.5999 33.69C21.1199 33.75 19.7599 33.25 18.3999 32.51Z" fill="#11721D"/>
<path d="M16.28 33.8L17.89 36.03C17.33 35.98 16.31 34.64 16.28 33.8Z" fill="#11721D"/>
<path d="M31.73 15.68L30.79 13.51C31.55 14.18 31.89 15.07 31.73 15.68Z" fill="#11721D"/>
<path d="M23.5799 41.55L23.6599 42.21L24.6499 42.35L24.6199 42.56C24.1999 42.49 23.7699 42.47 23.3799 42.32C23.2899 42.28 23.3699 41.81 23.3699 41.54H23.5799V41.55Z" fill="#11721D"/>
<path d="M25.8599 31.48C27.7299 31.33 29.1999 30.38 30.5999 29.03C30.1899 30.52 27.3099 31.9 25.8599 31.48Z" fill="#11721D"/>
<path d="M31.16 28.39L31.78 28.64L30.86 30.29L30.75 30.24L31.16 28.38V28.39Z" fill="#11721D"/>
<path d="M33.7699 20.8C33.3699 20.68 33.0399 20.54 32.6999 20.47C32.2799 20.39 32.0999 20.18 32.0599 19.75C31.9699 18.85 31.5099 18.65 30.6999 19.13C30.2199 19.42 29.8999 19.28 29.6399 18.82C31.5599 18.36 33.3099 18.73 33.7699 20.8Z" fill="#11721D"/>
</svg>
