<svg width="1440" height="409" viewBox="0 0 1440 409" fill="none" xmlns="http://www.w3.org/2000/svg">
<path d="M1441.73 19.5101V408.99C1432.96 408.1 1427.37 402.09 1414.38 402.09C1397.49 402.09 1397.49 408.46 1380.6 408.46C1363.71 408.46 1363.7 402.09 1346.81 402.09C1329.92 402.09 1329.92 408.46 1313.03 408.46C1296.14 408.46 1296.13 402.09 1279.24 402.09C1262.35 402.09 1262.35 408.46 1245.45 408.46C1228.55 408.46 1228.56 402.09 1211.67 402.09C1194.78 402.09 1194.77 408.46 1177.88 408.46C1160.99 408.46 1160.99 402.09 1144.09 402.09C1127.19 402.09 1127.2 408.46 1110.31 408.46C1093.42 408.46 1093.41 402.09 1076.52 402.09C1059.63 402.09 1059.63 408.46 1042.73 408.46C1025.83 408.46 1025.84 402.09 1008.94 402.09C992.04 402.09 992.05 408.46 975.16 408.46C958.27 408.46 958.26 402.09 941.37 402.09C924.48 402.09 924.47 408.46 907.58 408.46C890.69 408.46 890.69 402.09 873.79 402.09C856.89 402.09 856.9 408.46 840.01 408.46C823.12 408.46 823.11 402.09 806.22 402.09C789.33 402.09 789.33 408.46 772.44 408.46C755.55 408.46 755.55 402.09 738.65 402.09C721.75 402.09 721.76 408.46 704.87 408.46C687.98 408.46 687.97 402.09 671.08 402.09C654.19 402.09 654.19 408.46 637.3 408.46C620.41 408.46 620.4 402.09 603.51 402.09C586.62 402.09 586.62 408.46 569.72 408.46C552.82 408.46 552.83 402.09 535.94 402.09C519.05 402.09 519.04 408.46 502.15 408.46C485.26 408.46 485.25 402.09 468.36 402.09C451.47 402.09 451.46 408.46 434.57 408.46C417.68 408.46 417.68 402.09 400.78 402.09C383.88 402.09 383.89 408.46 366.99 408.46C350.09 408.46 350.1 402.09 333.2 402.09C316.3 402.09 316.31 408.46 299.41 408.46C282.51 408.46 282.52 402.09 265.62 402.09C248.72 402.09 248.73 408.46 231.83 408.46C214.93 408.46 214.94 402.09 198.05 402.09C181.16 402.09 181.15 408.46 164.26 408.46C147.37 408.46 147.36 402.09 130.46 402.09C113.56 402.09 113.57 408.46 96.67 408.46C79.77 408.46 79.77 402.09 62.88 402.09C45.99 402.09 46.23 408.02 29.35 408.46C14.83 408.83 13.2 406.96 1.73 403.53V389.56H0V5.55005C11.47 2.11005 13.1 0.250056 27.63 0.620056C44.51 1.05006 44.25 6.98004 61.15 6.98004C78.05 6.98004 78.05 0.620056 94.94 0.620056C111.83 0.620056 111.84 6.98004 128.74 6.98004C145.64 6.98004 145.63 0.620056 162.53 0.620056C179.43 0.620056 179.43 6.98004 196.32 6.98004C213.21 6.98004 213.22 0.620056 230.11 0.620056C247 0.620056 247 6.98004 263.9 6.98004C280.8 6.98004 280.79 0.620056 297.69 0.620056C314.59 0.620056 314.58 6.98004 331.48 6.98004C348.38 6.98004 348.37 0.620056 365.27 0.620056C382.17 0.620056 382.16 6.98004 399.06 6.98004C415.96 6.98004 415.95 0.620056 432.84 0.620056C449.73 0.620056 449.74 6.98004 466.63 6.98004C483.52 6.98004 483.53 0.620056 500.42 0.620056C517.31 0.620056 517.32 6.98004 534.21 6.98004C551.1 6.98004 551.11 0.620056 568 0.620056C584.89 0.620056 584.89 6.98004 601.78 6.98004C618.67 6.98004 618.68 0.620056 635.57 0.620056C652.46 0.620056 652.46 6.98004 669.35 6.98004C686.24 6.98004 686.25 0.620056 703.14 0.620056C720.03 0.620056 720.03 6.98004 736.93 6.98004C753.83 6.98004 753.82 0.620056 770.71 0.620056C787.6 0.620056 787.6 6.98004 804.5 6.98004C821.4 6.98004 821.39 0.620056 838.28 0.620056C855.17 0.620056 855.17 6.98004 872.07 6.98004C888.97 6.98004 888.96 0.620056 905.85 0.620056C922.74 0.620056 922.75 6.98004 939.64 6.98004C956.53 6.98004 956.54 0.620056 973.43 0.620056C990.32 0.620056 990.33 6.98004 1007.22 6.98004C1024.11 6.98004 1024.11 0.620056 1041.01 0.620056C1057.91 0.620056 1057.9 6.98004 1074.79 6.98004C1091.68 6.98004 1091.69 0.620056 1108.58 0.620056C1125.47 0.620056 1125.47 6.98004 1142.37 6.98004C1159.27 6.98004 1159.26 0.620056 1176.15 0.620056C1193.04 0.620056 1193.05 6.98004 1209.94 6.98004C1226.83 6.98004 1226.83 0.620056 1243.73 0.620056C1260.63 0.620056 1260.62 6.98004 1277.51 6.98004C1294.4 6.98004 1294.41 0.620056 1311.3 0.620056C1328.19 0.620056 1328.19 6.98004 1345.09 6.98004C1361.99 6.98004 1361.98 0.620056 1378.87 0.620056C1395.76 0.620056 1395.76 6.98004 1412.66 6.98004C1425.65 6.98004 1431.24 0.980078 1440 0.0800781V19.5101H1441.73Z" fill="#11721D"/>
</svg>
